<?xml version="1.0" standalone="no"?>
<!DOCTYPE svg PUBLIC "-//W3C//DTD SVG 20010904//EN"
 "http://www.w3.org/TR/2001/REC-SVG-20010904/DTD/svg10.dtd">
<svg version="1.0" xmlns="http://www.w3.org/2000/svg"
 width="1920.000000pt" height="1920.000000pt" viewBox="0 0 1920.000000 1920.000000"
 preserveAspectRatio="xMidYMid meet">
<metadata>
Created by potrace 1.14, written by Peter Selinger 2001-2017
</metadata>
<g transform="translate(0.000000,1920.000000) scale(0.100000,-0.100000)"
fill="#000000" stroke="none">
<path d="M9413 18026 c-36 -12 -123 -51 -231 -105 -51 -25 -141 -99 -161 -132
-10 -17 -29 -67 -41 -112 -27 -94 -34 -107 -64 -107 -49 0 -60 -42 -17 -64 28
-15 28 -17 33 -113 4 -90 8 -105 42 -169 36 -68 42 -74 115 -112 91 -49 186
-81 358 -123 133 -33 177 -37 303 -25 131 11 164 18 211 41 75 37 284 181 310
213 98 123 111 162 98 275 -15 123 -74 209 -207 304 -37 26 -89 66 -115 90
-64 56 -136 96 -222 123 -90 27 -346 38 -412 16z m108 -130 c26 -18 60 -67 53
-77 -2 -4 -6 -53 -8 -108 -3 -55 -7 -105 -10 -109 -3 -5 -36 -12 -73 -15 -37
-4 -98 -9 -135 -13 -37 -4 -79 -3 -94 0 -25 7 -26 10 -22 56 8 77 96 199 193
268 32 23 62 22 96 -2z m359 -100 c98 -56 210 -163 210 -200 0 -30 -29 -35
-185 -30 -138 3 -139 4 -132 132 7 133 22 147 107 98z m231 -318 c11 -17 -10
-99 -35 -142 -34 -58 -61 -81 -172 -142 -106 -58 -109 -60 -120 -43 -11 18
-17 316 -6 323 5 3 51 8 103 12 52 4 95 8 97 9 8 6 128 -8 133 -17z m-572 -21
c12 -18 11 -118 -4 -237 -2 -14 -3 -40 -4 -58 -1 -32 -2 -33 -33 -27 -69 15
-144 60 -215 129 -69 67 -73 73 -73 116 0 25 4 51 9 59 10 16 12 16 166 26 61
4 112 9 114 11 8 7 27 -2 40 -19z"/>
<path d="M10681 17637 c-41 -20 -45 -27 -63 -87 -10 -36 -22 -76 -26 -90 -4
-14 -6 -70 -3 -125 6 -91 9 -103 36 -139 l29 -38 69 5 c38 3 70 7 72 9 1 2 8
14 15 27 11 22 16 23 79 18 36 -3 111 -13 166 -21 55 -8 132 -18 170 -21 39
-3 88 -8 110 -10 22 -3 74 -7 115 -10 41 -3 100 -8 130 -11 30 -3 71 -8 90
-10 19 -2 49 -5 65 -8 17 -3 48 -8 70 -11 22 -4 56 -10 75 -15 19 -5 104 -23
189 -39 85 -17 157 -33 160 -37 3 -3 -3 -20 -13 -37 -77 -132 -110 -225 -94
-263 17 -38 75 -60 145 -56 17 2 26 15 44 70 53 163 93 222 139 207 44 -14 40
-36 -84 -413 -36 -112 -66 -210 -66 -219 0 -8 18 -37 41 -64 34 -41 46 -49 75
-49 24 0 38 6 48 23 24 37 109 261 171 450 36 110 63 177 71 177 26 0 106 -32
229 -90 118 -57 125 -62 125 -89 0 -17 -5 -33 -10 -36 -6 -4 -20 -28 -32 -53
-12 -26 -46 -70 -75 -98 -78 -74 -89 -128 -35 -177 16 -15 24 -16 45 -6 14 6
28 21 31 33 4 11 38 45 77 74 46 36 88 79 122 128 28 41 56 74 62 74 22 0 261
-112 320 -150 33 -21 77 -43 98 -50 21 -7 78 -32 125 -57 68 -36 104 -64 165
-127 76 -79 78 -82 74 -123 -3 -33 -12 -48 -38 -70 -18 -15 -42 -39 -54 -53
-11 -14 -46 -51 -77 -83 -32 -31 -58 -65 -58 -75 0 -22 -22 -55 -87 -129 -100
-114 -112 -137 -93 -174 11 -20 18 -21 80 -17 78 6 149 37 188 84 143 166 200
241 238 314 20 39 43 74 51 77 29 11 70 -11 120 -63 l53 -56 -88 -67 c-88 -69
-173 -148 -226 -211 -16 -19 -36 -43 -44 -52 -8 -10 -16 -29 -17 -43 -5 -37
28 -55 101 -55 103 0 162 37 323 204 63 66 88 76 110 49 9 -11 40 -33 70 -49
75 -40 134 -101 121 -125 -6 -10 -19 -20 -29 -24 -11 -3 -39 -29 -63 -58 -23
-29 -82 -91 -131 -138 -83 -81 -87 -87 -77 -111 17 -35 104 -57 152 -38 64 26
136 79 203 149 86 89 135 124 161 114 51 -21 163 -95 178 -118 38 -58 33 -87
-27 -172 -65 -92 -86 -112 -150 -144 -51 -24 -96 -69 -122 -119 -14 -27 -14
-30 2 -38 29 -15 183 -7 228 12 23 10 82 59 141 117 l101 101 29 -16 c41 -22
66 -45 107 -100 l37 -47 -83 -86 c-45 -47 -96 -100 -112 -118 -17 -17 -57 -50
-90 -73 -33 -23 -67 -47 -76 -54 -17 -14 -59 -78 -59 -90 0 -13 71 -29 117
-27 27 1 62 9 78 17 72 35 211 137 270 198 11 12 31 27 44 34 22 11 26 9 61
-31 27 -31 40 -57 44 -89 4 -27 16 -54 32 -71 25 -26 25 -27 8 -61 -12 -26
-26 -39 -54 -47 -21 -6 -71 -33 -111 -59 -41 -27 -90 -54 -109 -60 -50 -17
-218 -132 -223 -153 -10 -37 5 -40 190 -42 l180 -2 49 35 c27 19 60 45 74 58
14 12 48 39 77 59 l52 35 35 -22 c20 -12 49 -38 66 -58 16 -20 49 -44 72 -53
37 -14 49 -27 86 -90 l42 -74 -51 -23 c-29 -13 -79 -29 -112 -37 -32 -7 -66
-20 -75 -28 -25 -22 -67 -41 -177 -82 -161 -60 -275 -123 -275 -152 0 -2 20
-13 45 -24 29 -13 79 -23 133 -26 169 -12 180 -10 272 34 141 68 284 135 306
143 33 13 69 -17 71 -60 1 -19 3 -46 5 -59 3 -22 -5 -28 -82 -59 -46 -18 -141
-50 -210 -69 -132 -38 -314 -112 -350 -143 l-21 -19 24 -16 c20 -13 58 -17
178 -19 170 -4 183 -1 314 63 109 54 192 84 210 77 26 -9 91 -121 140 -239 26
-62 66 -150 90 -197 43 -86 95 -225 95 -254 0 -8 11 -41 25 -72 18 -41 25 -72
24 -117 -1 -49 6 -75 30 -127 36 -77 45 -140 24 -169 -8 -12 -13 -29 -12 -39
1 -9 -3 -43 -10 -75 -7 -31 -12 -76 -11 -100 1 -23 1 -47 1 -54 -1 -6 -26 -23
-57 -37 l-57 -26 6 -58 c4 -31 8 -66 11 -77 2 -11 7 -39 11 -62 7 -46 22 -64
31 -39 8 22 27 20 50 -5 29 -32 63 -46 129 -54 33 -4 91 -14 129 -22 70 -15
135 -13 207 7 44 12 63 46 48 87 -19 55 -16 141 7 213 12 38 20 70 19 72 -2 2
-5 17 -8 33 -3 17 -16 77 -30 135 -27 114 -52 257 -62 360 -20 203 -121 581
-207 780 -117 268 -219 481 -262 544 -14 21 -26 45 -26 52 0 17 -117 243 -178
344 -70 116 -148 223 -182 249 -16 13 -30 29 -30 37 0 8 -15 31 -34 51 -18 21
-53 70 -77 109 -24 38 -50 79 -56 90 -165 261 -215 336 -251 374 -24 25 -55
59 -69 75 -14 17 -62 68 -107 115 -46 47 -102 110 -125 140 -36 46 -49 55 -80
58 -30 3 -49 17 -121 90 -47 48 -106 103 -130 124 -84 68 -145 123 -164 148
-68 87 -233 209 -406 302 -56 30 -162 106 -225 162 -16 15 -55 38 -85 52 -30
15 -102 61 -160 103 -169 123 -221 156 -379 236 -62 32 -143 75 -179 96 -36
21 -111 57 -166 81 -56 23 -121 54 -146 68 -118 68 -261 121 -505 190 -178 50
-356 95 -405 104 -19 3 -46 8 -60 11 -13 3 -42 7 -65 10 -22 3 -80 12 -130 20
-49 8 -108 17 -130 19 -22 3 -58 8 -80 10 -22 3 -71 8 -110 10 -194 14 -252
19 -270 22 -11 2 -45 7 -75 10 -30 3 -68 9 -85 14 -26 8 -139 28 -260 45 -35
5 -70 11 -184 30 -36 6 -52 27 -54 69 -2 33 -5 37 -27 35 -14 -2 -44 7 -67 19
-51 26 -47 27 -102 -1z"/>
<path d="M8615 17578 c-28 -22 -37 -23 -225 -24 -107 -1 -208 -4 -225 -7 -16
-3 -84 -8 -150 -11 -66 -4 -151 -9 -190 -11 -38 -3 -115 -8 -170 -10 -55 -3
-125 -10 -155 -15 -30 -5 -80 -12 -110 -16 -48 -5 -138 -23 -205 -39 -11 -3
-36 -8 -55 -11 -19 -3 -43 -7 -52 -10 -9 -3 -25 -7 -35 -9 -190 -44 -514 -154
-643 -219 -58 -30 -142 -65 -186 -79 -169 -53 -515 -203 -802 -346 -97 -48
-208 -101 -247 -117 -38 -15 -76 -34 -83 -41 -7 -7 -18 -13 -24 -13 -19 0
-304 -145 -374 -190 -39 -26 -127 -70 -195 -100 -207 -88 -251 -111 -324 -165
-38 -28 -114 -81 -167 -118 -91 -62 -248 -189 -346 -279 -23 -22 -57 -63 -75
-91 -19 -29 -59 -74 -90 -100 -32 -27 -57 -54 -57 -60 0 -7 -14 -32 -30 -56
-20 -29 -28 -51 -24 -65 6 -23 -38 -72 -193 -216 -38 -36 -98 -103 -133 -150
-35 -47 -86 -110 -114 -140 -70 -76 -210 -257 -283 -365 -34 -49 -86 -119
-116 -154 -30 -36 -61 -83 -68 -105 -7 -23 -32 -60 -54 -83 -53 -55 -155 -240
-155 -282 0 -18 -11 -53 -24 -79 -13 -26 -29 -64 -35 -85 -7 -21 -24 -51 -38
-68 -31 -37 -143 -255 -143 -278 0 -10 -13 -38 -30 -64 -48 -76 -66 -117 -100
-222 -18 -55 -39 -111 -48 -125 -9 -14 -17 -50 -18 -80 -1 -31 -17 -99 -36
-155 -40 -120 -41 -206 -6 -370 12 -55 15 -241 5 -355 -2 -25 2 -65 10 -90 7
-25 13 -57 13 -71 0 -32 16 -47 58 -55 25 -5 44 2 108 42 84 54 113 89 143
177 23 65 22 61 16 357 -2 118 0 236 5 261 8 42 48 141 162 405 21 50 58 118
82 150 38 54 110 201 202 416 19 44 43 93 55 109 11 16 32 57 46 92 45 111 58
115 167 50 47 -28 72 -36 108 -37 26 0 51 3 54 7 13 13 -37 55 -132 112 -52
31 -94 59 -94 63 0 4 11 24 25 44 14 20 25 39 25 42 0 12 140 214 152 219 15
5 61 -19 163 -85 68 -44 238 -115 301 -125 30 -5 32 -3 39 33 6 36 4 41 -27
67 -37 32 -172 113 -295 178 -46 24 -83 47 -83 51 0 26 125 178 146 178 7 0
59 -24 116 -54 118 -61 276 -126 306 -126 12 0 28 10 36 21 13 19 13 24 0 44
-14 21 -69 62 -119 89 -80 44 -218 132 -222 143 -9 23 176 233 206 233 4 0 33
-22 66 -50 67 -57 292 -172 314 -160 7 4 19 21 26 38 13 29 11 32 -28 75 -58
62 -127 112 -219 158 -49 25 -78 45 -76 53 4 20 190 185 208 185 8 1 54 -36
101 -82 74 -71 99 -87 179 -121 75 -32 94 -36 101 -25 33 52 -37 153 -204 292
l-57 48 20 29 c46 65 140 144 216 183 31 16 33 16 65 -14 62 -56 153 -121 213
-151 58 -29 59 -29 78 -10 30 30 15 63 -79 165 -132 144 -127 130 -61 193 67
62 176 119 210 110 31 -8 140 -117 185 -185 59 -90 97 -109 108 -54 3 19 8 40
11 47 3 8 -1 20 -8 27 -14 16 -20 24 -120 169 l-65 95 117 83 c65 45 124 84
132 87 11 3 100 -107 241 -300 23 -31 154 -95 194 -95 52 0 55 10 28 79 -42
109 -101 198 -232 349 -35 40 -63 76 -63 80 0 15 138 96 269 159 75 35 212
103 306 150 93 47 198 96 233 109 35 13 94 41 131 63 87 52 237 115 256 107 8
-3 32 -43 54 -88 42 -90 68 -123 149 -186 70 -55 85 -54 100 4 l12 46 -75 139
c-41 76 -76 144 -77 150 -2 7 47 30 112 55 l115 43 18 -23 c10 -13 38 -68 61
-123 42 -99 97 -203 143 -275 21 -30 34 -39 86 -52 66 -18 134 -26 154 -19 7
3 15 20 19 38 5 29 0 43 -39 97 -25 35 -82 135 -126 223 -45 88 -87 167 -93
176 -6 9 -9 23 -6 31 14 36 155 72 176 45 5 -7 31 -65 58 -130 l49 -117 74
-50 c41 -28 80 -50 87 -50 7 0 21 24 32 52 l20 53 -30 85 c-17 47 -45 112 -64
146 -40 72 -42 87 -11 101 70 32 449 107 597 118 72 5 144 11 240 20 50 4 201
15 270 19 54 3 80 -2 80 -18 0 -6 5 -27 10 -47 9 -33 14 -37 53 -42 23 -4 60
-3 82 1 35 6 43 13 62 52 12 25 25 63 29 85 3 22 7 42 9 45 2 3 -1 30 -6 59
-10 68 -41 102 -96 108 -30 3 -45 -1 -68 -19z"/>
<path d="M7840 16835 c-102 -15 -167 -33 -174 -50 -2 -7 6 -23 19 -37 23 -25
23 -26 5 -54 -10 -16 -41 -54 -70 -84 -28 -30 -72 -89 -98 -130 -25 -41 -51
-77 -56 -79 -21 -9 -79 -77 -98 -115 -11 -23 -46 -64 -78 -93 -57 -50 -59 -51
-101 -43 -24 5 -136 27 -249 49 -113 22 -222 43 -243 46 -20 3 -53 7 -71 10
-19 3 -95 7 -169 10 -129 6 -136 5 -203 -21 -38 -15 -74 -31 -81 -36 -7 -5
-33 -50 -58 -100 -25 -50 -57 -105 -71 -123 -20 -27 -25 -44 -26 -106 -2 -85
9 -187 24 -241 14 -48 46 -78 169 -162 80 -54 200 -79 379 -79 117 1 130 2
293 37 134 28 153 37 233 108 34 29 84 73 112 98 33 28 63 67 83 107 19 38 45
73 67 89 21 15 52 41 70 58 18 17 36 30 40 28 4 -1 25 0 47 3 22 4 63 7 90 9
28 1 70 12 95 23 25 11 72 28 105 37 162 45 432 139 473 165 41 25 54 68 67
213 2 24 -21 150 -44 235 -24 89 -106 178 -192 208 -24 9 -75 18 -114 21 -38
3 -74 7 -80 8 -5 1 -48 -3 -95 -9z m174 -151 c28 -27 77 -103 98 -150 34 -78
29 -214 -9 -256 -49 -55 -201 -131 -310 -157 -64 -16 -165 -21 -201 -12 -21 6
-26 13 -24 32 7 49 52 130 102 181 28 29 72 85 97 123 26 39 57 86 70 105 41
63 125 150 144 150 9 0 25 -7 33 -16z m-989 -669 c11 -2 27 -4 36 -4 8 -1 24
-7 34 -15 19 -14 18 -16 -18 -68 -53 -78 -203 -221 -262 -250 -59 -30 -135
-55 -189 -64 -21 -3 -48 -8 -60 -10 -71 -14 -209 -2 -258 22 -51 26 -80 199
-43 261 20 34 78 76 125 91 63 21 256 32 355 20 24 -3 57 2 85 14 42 17 94 17
195 3z"/>
<path d="M11538 16709 c-72 -16 -200 -89 -259 -148 -49 -48 -62 -69 -85 -136
-23 -67 -28 -98 -28 -185 -1 -97 1 -110 28 -165 51 -103 160 -190 262 -209 16
-2 63 -13 104 -23 59 -14 115 -17 266 -16 l191 1 27 -43 c29 -45 133 -149 226
-226 107 -88 114 -91 239 -107 159 -20 153 -20 291 8 30 6 81 13 114 15 32 3
73 13 91 24 18 10 48 22 66 26 18 4 80 39 136 77 l103 68 0 68 c0 84 -23 184
-55 238 -32 55 -183 174 -296 235 -47 25 -171 40 -251 30 -5 -1 -8 -12 -8 -26
0 -28 -33 -49 -95 -60 -22 -4 -110 -25 -195 -46 -228 -57 -226 -57 -246 -18
-15 31 -112 297 -119 329 -2 8 -17 59 -34 112 -35 107 -32 104 -130 113 -35 3
-105 19 -155 35 -110 35 -140 39 -188 29z m270 -250 c28 -11 50 -60 58 -131 4
-31 23 -87 45 -134 22 -45 42 -102 45 -126 l6 -46 -39 -5 c-49 -6 -278 -1
-323 8 -139 26 -190 77 -193 190 -1 47 3 60 42 117 42 63 43 64 145 101 56 21
108 42 115 47 12 7 39 1 99 -21z m1132 -416 c55 -41 101 -86 116 -115 19 -36
18 -104 -2 -166 -16 -50 -18 -51 -98 -85 -144 -62 -284 -76 -389 -39 -94 33
-237 148 -276 220 -10 19 -8 23 21 35 91 38 184 69 283 96 61 17 144 44 185
60 84 33 108 32 160 -6z"/>
<path d="M9493 16662 c-12 -2 -29 -15 -38 -29 -16 -23 -16 -26 2 -38 60 -42
64 -49 65 -105 1 -129 -26 -298 -52 -324 -20 -20 -120 44 -225 145 l-100 96
-65 -2 c-67 -2 -113 -15 -126 -36 -4 -7 -8 -27 -10 -44 -2 -27 3 -35 24 -46
15 -7 38 -14 51 -16 32 -5 98 -40 108 -56 4 -7 28 -27 53 -44 25 -17 62 -48
82 -70 41 -43 65 -93 45 -93 -6 -1 -70 -3 -142 -5 -71 -3 -146 -7 -165 -10
-32 -4 -274 -7 -395 -4 -106 3 -114 -1 -121 -67 -3 -27 -7 -55 -10 -63 -5 -15
139 -157 166 -164 25 -6 33 1 71 63 l34 56 50 -2 c28 -1 75 -3 105 -4 30 -1
100 1 155 5 64 5 110 3 127 -3 l27 -11 -44 -47 c-25 -26 -50 -61 -56 -78 -8
-21 -36 -48 -90 -86 -78 -54 -84 -63 -80 -117 1 -11 -9 -43 -23 -70 -42 -81
-39 -115 13 -135 48 -19 92 -16 123 8 29 22 148 181 148 198 0 14 175 196 210
219 l26 17 17 -46 c13 -36 16 -72 14 -167 -3 -121 -4 -123 -51 -227 -25 -58
-63 -124 -84 -146 -101 -113 -204 -215 -238 -237 -22 -14 -57 -44 -79 -68 -23
-24 -59 -59 -80 -78 -22 -19 -73 -65 -113 -103 -40 -37 -96 -84 -125 -102 -29
-19 -59 -42 -67 -51 -8 -9 -39 -34 -70 -55 -149 -101 -188 -103 -283 -14 -34
32 -64 61 -67 65 -3 3 -39 31 -80 62 -41 32 -80 62 -87 67 -30 24 -166 89
-250 120 -81 28 -93 36 -93 56 0 12 4 25 8 28 5 3 121 6 260 7 228 2 254 4
283 21 30 18 31 20 13 32 -18 12 -39 19 -104 31 -27 5 -100 12 -235 20 -90 6
-147 13 -152 19 -11 10 17 37 84 81 86 56 107 80 83 95 -25 16 -68 11 -118
-14 -26 -12 -61 -26 -78 -29 l-31 -6 3 88 c3 104 -11 140 -62 164 -52 25 -103
21 -142 -11 -35 -29 -44 -54 -31 -88 5 -14 3 -28 -4 -39 -11 -15 -17 -13 -57
18 -157 118 -213 140 -244 95 -15 -21 -14 -24 22 -58 68 -61 182 -207 182
-232 0 -3 -18 -4 -40 -2 -108 13 -191 11 -240 -6 -64 -22 -65 -23 -45 -53 26
-40 66 -52 216 -62 47 -3 99 -9 114 -13 l29 -8 -35 -33 c-19 -19 -68 -59 -109
-91 -109 -84 -124 -101 -109 -133 9 -20 20 -26 52 -29 37 -4 48 2 119 55 74
56 80 59 107 47 16 -6 31 -17 34 -23 5 -15 2 -66 -8 -147 -14 -109 -13 -112
24 -134 24 -14 51 -20 89 -19 53 1 74 10 78 35 9 56 44 232 47 234 6 6 110
-27 152 -49 104 -52 217 -138 250 -189 17 -27 17 -28 -6 -36 -13 -5 -71 -26
-128 -47 -101 -37 -136 -58 -239 -140 -65 -53 -128 -178 -134 -270 -2 -32 24
-118 52 -175 30 -59 138 -188 182 -217 37 -25 51 -28 122 -28 75 0 128 5 229
20 51 7 103 41 165 110 56 61 80 101 111 187 40 107 48 235 20 326 -16 56 -6
65 69 63 84 -2 150 -16 218 -46 152 -69 305 -148 350 -181 67 -50 157 -144
203 -213 l38 -56 2 -120 c2 -112 -13 -209 -37 -250 -5 -9 -28 -7 -97 12 -190
51 -236 61 -307 69 -131 15 -582 9 -688 -10 -14 -2 -51 -7 -84 -11 -32 -4 -68
-8 -80 -10 -11 -3 -82 -14 -156 -25 -74 -11 -162 -27 -195 -35 -183 -46 -315
-53 -500 -29 -74 10 -179 45 -255 86 -79 41 -130 89 -186 174 -41 62 -132 150
-171 165 -15 6 -83 12 -151 13 -67 2 -124 5 -126 7 -10 10 38 52 125 110 52
34 116 82 144 107 75 67 234 143 330 157 49 8 78 28 73 50 -1 9 -34 33 -72 54
-37 20 -84 51 -105 69 -132 122 -317 196 -470 188 -88 -5 -147 -24 -213 -68
-45 -31 -48 -35 -69 -120 -13 -56 -19 -100 -15 -123 l7 -34 -43 19 c-109 48
-266 46 -426 -5 -88 -28 -86 -27 -129 -77 -36 -42 -37 -82 -3 -152 11 -23 20
-59 20 -79 0 -20 9 -54 20 -74 23 -43 26 -72 8 -74 -7 -1 -49 -3 -93 -4 -117
-3 -269 -46 -308 -87 -91 -97 -143 -217 -123 -289 6 -23 18 -41 29 -45 25 -8
87 -63 87 -78 0 -7 -37 -23 -82 -36 -110 -31 -162 -54 -218 -95 -37 -27 -50
-45 -60 -80 -18 -64 -8 -195 17 -232 50 -70 50 -69 -27 -92 -128 -39 -214
-102 -248 -183 -10 -25 -5 -34 68 -131 44 -57 91 -126 104 -153 l25 -49 -22
-17 c-12 -10 -28 -18 -35 -18 -28 0 -99 -90 -148 -185 -71 -137 -74 -161 -30
-226 21 -32 53 -62 83 -79 26 -15 69 -47 96 -70 26 -23 69 -49 95 -57 52 -16
192 -18 220 -4 9 6 34 13 55 16 28 5 51 19 82 50 l42 44 64 -16 c45 -11 113
-16 229 -16 157 0 200 2 435 20 195 15 420 8 555 -16 110 -20 192 14 143 59
-36 34 -247 88 -365 95 -72 4 -92 18 -84 59 3 17 8 56 11 86 14 132 71 288
131 359 l36 41 36 -31 c88 -75 235 -225 243 -248 6 -13 10 -40 11 -60 0 -21
17 -68 41 -113 33 -63 45 -78 64 -78 13 0 33 -12 46 -27 84 -102 150 -139 282
-160 84 -13 251 -17 320 -9 17 2 57 7 90 11 105 13 151 21 210 37 22 5 50 12
63 14 12 3 66 20 120 40 53 20 118 41 144 49 59 16 166 17 226 0 88 -23 315
-116 369 -151 29 -19 99 -57 156 -85 106 -53 281 -164 312 -199 10 -11 15 -23
11 -27 -14 -14 -758 -21 -956 -9 -178 10 -267 15 -436 21 -82 4 -183 8 -224
10 -41 2 -149 7 -240 10 -270 9 -396 15 -580 29 -41 3 -154 8 -250 12 -96 3
-191 7 -210 10 -19 2 -84 6 -145 9 -131 6 -265 14 -320 20 -22 2 -71 7 -110
11 -38 3 -234 8 -435 9 -201 2 -376 6 -390 9 -14 4 -99 8 -190 11 -91 3 -174
7 -185 9 -11 2 -49 7 -85 11 -36 4 -74 9 -85 11 -11 3 -103 9 -205 15 -102 5
-207 12 -235 13 -27 2 -108 7 -180 11 -71 3 -152 8 -180 10 -27 2 -93 6 -145
9 -52 3 -120 8 -150 10 -30 3 -102 8 -160 11 -139 8 -236 14 -285 20 -134 14
-162 18 -180 21 -28 5 -81 12 -150 19 -33 3 -78 8 -100 10 -22 3 -71 7 -110
10 -38 3 -110 10 -160 16 -49 5 -119 12 -155 15 -36 3 -105 12 -155 21 -128
21 -224 28 -237 15 -6 -6 -10 -33 -9 -59 5 -85 7 -118 9 -134 1 -9 24 -41 51
-72 27 -31 51 -61 53 -67 3 -9 14 -9 45 0 35 11 52 10 110 -5 103 -26 102 -26
332 -31 510 -10 704 -18 722 -30 4 -2 49 -6 100 -9 169 -9 312 -23 421 -41 18
-3 112 -7 208 -8 96 -2 213 -6 260 -10 47 -3 207 -8 355 -11 151 -2 292 -9
320 -15 28 -6 136 -13 242 -15 106 -2 209 -8 230 -14 75 -20 101 -22 295 -26
108 -2 203 -7 210 -11 7 -5 123 -9 258 -10 229 -1 299 -6 323 -21 11 -7 144
-11 435 -13 95 -1 189 -6 209 -12 21 -6 105 -11 188 -13 82 -2 168 -7 190 -11
42 -9 92 -9 325 1 80 3 541 6 1025 6 754 0 889 3 940 16 58 14 205 14 290 -2
17 -3 74 3 126 14 100 21 246 36 314 33 22 -1 93 -4 158 -8 98 -5 126 -3 163
11 37 14 70 16 192 13 102 -3 168 0 217 10 39 8 113 16 165 19 117 5 102 5
181 0 49 -4 80 0 124 15 54 18 75 19 274 12 119 -4 243 -7 276 -8 33 -1 85 4
116 11 75 16 94 17 304 7 333 -14 427 -11 624 21 13 2 32 0 41 -5 22 -12 84
-18 245 -25 72 -3 153 -8 180 -11 28 -3 110 -7 182 -9 75 -2 142 -9 154 -16
33 -17 138 -12 168 8 28 19 127 25 331 22 238 -3 301 -2 435 6 156 9 171 9
338 -1 65 -4 120 -11 123 -16 3 -4 -3 -8 -13 -9 -10 0 -25 -2 -33 -4 -8 -1
-46 -6 -85 -9 -38 -4 -83 -9 -100 -11 -16 -2 -61 -7 -100 -10 -38 -4 -77 -9
-86 -10 -9 -2 -61 -6 -115 -10 -84 -5 -197 -21 -291 -39 -12 -3 -57 -8 -100
-11 -43 -4 -94 -9 -113 -11 -19 -2 -66 -4 -105 -3 -131 1 -150 1 -410 -5 -302
-7 -579 -18 -775 -31 -41 -3 -122 -7 -180 -10 -108 -5 -214 -12 -310 -20 -30
-3 -86 -7 -124 -10 -38 -3 -80 -7 -95 -9 -14 -3 -62 -7 -105 -11 -43 -4 -86
-8 -95 -10 -9 -1 -52 -6 -96 -10 -44 -4 -87 -8 -95 -10 -39 -7 -198 -15 -430
-21 -140 -3 -291 -8 -335 -10 -382 -15 -424 -16 -481 -4 -41 9 -153 12 -369
11 -170 0 -319 -3 -331 -5 -11 -2 -61 -7 -110 -11 -49 -4 -105 -8 -124 -10
-51 -6 -241 -7 -270 -1 -14 2 -47 7 -75 11 -79 10 -115 16 -190 31 -95 20
-119 23 -200 29 -38 2 -87 8 -108 14 -21 5 -95 8 -165 7 -70 -1 -158 3 -197
10 -42 8 -114 11 -180 8 -60 -3 -114 -4 -120 -4 -74 7 -287 5 -310 -3 -16 -5
-97 -11 -180 -13 -251 -6 -426 -13 -500 -20 -115 -10 -194 -6 -320 17 -110 20
-155 22 -531 24 -226 2 -422 6 -435 10 -13 5 -87 9 -164 10 -77 2 -160 6 -185
9 -25 4 -61 9 -80 12 -19 2 -51 7 -70 10 -50 7 -331 5 -425 -3 -44 -4 -105 -5
-135 -3 -101 6 -279 -1 -450 -18 -83 -8 -216 -7 -450 3 -85 3 -182 6 -215 6
-457 -5 -652 -1 -755 14 -52 7 -165 18 -172 17 -18 -4 -95 -3 -113 2 -11 2
-66 19 -122 36 -136 41 -262 67 -364 76 -46 3 -85 8 -87 9 -2 1 -21 -1 -43 -6
-31 -7 -48 -5 -82 10 -74 34 -188 58 -224 48 -27 -8 -34 -18 -53 -75 -26 -77
-24 -112 16 -212 25 -65 26 -71 11 -88 -18 -19 -22 -41 -9 -43 4 -1 16 -3 27
-4 11 -2 37 -6 58 -10 20 -3 115 -8 210 -10 94 -1 183 -5 197 -8 14 -3 48 -8
75 -11 28 -3 66 -11 85 -17 19 -6 75 -12 125 -14 127 -4 212 -14 270 -30 28
-8 93 -17 145 -19 52 -3 107 -8 122 -11 14 -4 77 -8 140 -9 62 -2 125 -8 140
-14 17 -7 117 -12 255 -12 140 -1 251 -6 288 -14 33 -7 119 -13 190 -14 113
-2 201 -8 255 -17 39 -7 295 -28 320 -26 8 0 43 3 78 5 59 5 65 3 93 -24 22
-20 45 -30 82 -35 29 -4 68 -14 87 -23 19 -9 59 -16 88 -17 36 -1 61 -8 81
-23 40 -29 154 -46 266 -38 50 3 99 8 111 10 12 2 43 7 70 11 27 3 57 7 67 9
17 2 103 -7 166 -19 15 -3 54 6 94 22 59 23 67 29 67 52 l0 27 93 -1 c50 0
110 3 132 7 127 23 275 34 315 25 8 -2 29 -6 45 -10 31 -7 198 -19 247 -18 15
1 56 10 93 22 77 24 148 20 290 -15 100 -25 260 -28 390 -8 39 6 86 13 105 16
19 2 51 9 70 15 19 6 51 11 71 11 20 0 56 7 80 16 56 21 72 20 109 -6 25 -18
38 -20 73 -14 23 4 103 9 177 10 74 1 169 4 210 7 41 2 100 1 130 -2 44 -6 60
-3 83 12 24 16 40 18 125 13 102 -7 166 -13 243 -22 75 -8 1024 -10 1129 -2
264 21 297 21 337 5 33 -13 83 -15 313 -11 151 2 365 6 475 10 110 3 283 7
385 9 182 2 251 8 320 24 19 5 42 9 50 9 8 -1 38 2 65 6 28 4 79 8 114 11 35
2 78 7 95 11 52 13 78 11 164 -12 81 -22 83 -22 145 -5 41 11 73 15 92 9 55
-14 187 -2 251 23 54 22 73 24 219 24 99 0 177 -6 205 -13 66 -19 353 -24 401
-7 31 11 47 11 96 0 133 -31 350 -45 548 -35 39 2 100 0 136 -4 52 -6 72 -5
96 7 19 10 34 12 44 6 13 -9 135 -6 304 8 44 4 98 6 120 5 117 -6 222 -5 330
2 66 5 125 8 130 7 6 -1 111 -4 235 -6 233 -4 284 -7 335 -23 17 -5 47 -8 67
-7 68 5 173 16 188 20 84 23 234 21 325 -5 23 -6 312 -6 360 1 10 1 94 -10
130 -17 47 -10 200 -3 262 11 98 23 164 26 481 21 l112 -2 37 -35 c21 -18 40
-38 44 -42 3 -5 18 2 32 15 21 19 27 35 32 88 4 35 8 67 10 70 1 3 6 33 10 68
4 35 10 75 14 90 5 15 7 64 6 110 l-2 82 -49 53 c-27 28 -61 63 -76 75 -16 13
-28 30 -28 37 0 7 24 25 53 40 67 35 68 37 71 75 2 32 -15 60 -37 60 -7 1 -55
6 -107 13 -73 10 -103 10 -130 1 -34 -11 -201 -11 -220 1 -8 5 -129 8 -970 21
-467 8 -944 8 -1055 0 -141 -10 -226 -17 -255 -22 -14 -3 -101 -7 -195 -10
-93 -2 -180 -6 -193 -9 -37 -7 -135 -24 -169 -30 -110 -18 -498 -34 -648 -26
-33 2 -98 0 -145 -4 -58 -5 -109 -3 -160 6 -41 7 -79 11 -85 9 -5 -1 -86 -2
-180 0 -323 5 -390 5 -460 -4 -84 -11 -131 -11 -210 -3 -33 4 -150 10 -260 13
-239 7 -201 7 -310 0 -176 -11 -382 -17 -495 -15 -471 8 -1239 -8 -1270 -26
-8 -4 -103 -14 -210 -21 -52 -3 -122 -9 -155 -14 -97 -14 -262 -23 -290 -16
-27 7 -27 7 21 38 27 18 90 73 139 123 81 80 104 96 205 147 168 82 265 106
355 85 22 -5 51 -11 65 -13 14 -2 36 -7 50 -9 54 -11 76 -15 115 -20 22 -3 47
-8 55 -10 8 -2 49 -7 90 -10 41 -3 86 -7 100 -10 116 -24 412 -27 500 -6 54
14 79 24 215 95 39 20 79 36 91 36 92 0 294 119 471 277 244 217 298 263 309
263 39 0 65 -29 131 -143 39 -67 77 -133 84 -147 16 -31 17 -177 1 -207 -16
-30 -65 -41 -202 -47 -63 -3 -130 -8 -149 -11 -175 -33 -224 -45 -236 -55 -20
-16 -10 -99 14 -116 29 -22 88 -34 138 -29 26 2 80 7 120 10 40 3 107 13 150
21 43 8 143 17 223 20 80 2 168 6 195 8 46 4 152 8 497 21 143 6 204 11 301
26 79 13 75 15 144 -76 62 -83 110 -101 254 -97 116 3 170 18 248 68 60 39 81
74 81 135 0 31 -32 92 -79 149 -21 25 -40 50 -44 56 -8 14 10 61 61 159 32 62
36 79 36 145 1 63 -4 84 -27 132 -26 52 -73 100 -103 104 -6 1 -28 10 -47 19
-33 15 -36 20 -30 48 3 18 10 40 15 51 6 10 10 59 9 107 -1 86 -3 92 -37 139
-28 38 -50 56 -102 81 -127 59 -117 47 -118 143 -2 68 -8 104 -34 178 -52 147
-97 190 -233 224 -34 9 -78 20 -98 25 -47 12 -78 66 -72 126 6 57 -43 148
-110 209 -39 35 -67 49 -136 70 -47 14 -89 29 -93 33 -4 3 -14 49 -23 101 -9
52 -24 113 -34 135 -55 122 -177 166 -473 169 l-110 1 -19 50 c-31 79 -109
186 -163 222 -64 43 -102 53 -227 60 -159 8 -278 -30 -374 -118 -27 -25 -66
-47 -104 -60 l-62 -21 6 -35 c3 -20 7 -39 10 -43 3 -5 55 -25 116 -45 65 -22
119 -46 132 -60 49 -51 204 -141 297 -171 45 -15 118 -69 107 -80 -6 -7 -33
-12 -67 -13 -18 -1 -35 -15 -60 -51 -23 -32 -47 -54 -68 -61 -19 -6 -45 -28
-61 -50 -95 -131 -192 -199 -376 -267 -144 -53 -331 -71 -504 -48 -30 4 -86
18 -125 31 -134 45 -239 66 -391 80 -38 4 -83 9 -100 11 -34 4 -306 4 -375 0
-42 -3 -85 -7 -215 -22 -27 -3 -95 -20 -150 -39 -55 -19 -119 -39 -142 -45
-24 -6 -51 -20 -62 -31 -24 -26 -30 -12 -26 59 2 33 12 67 26 91 39 65 374
456 513 598 122 126 192 182 244 198 13 4 43 20 65 35 49 33 112 60 138 60 11
0 19 -1 19 -3 0 -2 -12 -37 -27 -78 -26 -70 -28 -83 -26 -229 0 -85 5 -168 10
-185 10 -33 102 -101 212 -157 60 -30 72 -33 160 -33 53 0 128 4 166 8 39 5
93 10 120 13 142 11 156 17 181 76 22 54 28 276 8 351 -19 73 -135 239 -192
276 -60 38 -175 93 -230 111 -23 7 -47 19 -52 25 -37 45 150 237 279 286 81
30 90 20 97 -114 6 -140 22 -177 75 -177 40 0 89 50 83 84 -2 14 -6 38 -9 54
-3 15 -8 56 -11 91 l-7 63 24 -12 c13 -7 48 -37 77 -66 52 -53 109 -81 139
-70 12 5 -7 30 -81 106 -53 54 -96 106 -96 114 0 12 22 15 133 15 72 0 141 2
152 5 11 2 41 7 67 10 101 14 250 70 261 100 13 32 -64 34 -208 6 -75 -14
-138 -19 -249 -18 -81 1 -150 6 -153 11 -8 13 21 39 147 130 62 46 115 88 117
94 3 7 -6 19 -19 27 -53 35 -85 26 -209 -54 -99 -64 -121 -52 -100 54 29 151
32 192 15 207 -19 16 -62 -13 -79 -54 -12 -30 -28 -101 -39 -177 -3 -19 -7
-44 -10 -55 -2 -11 -7 -39 -11 -62 -7 -44 -26 -69 -47 -60 -7 2 -66 50 -130
106 -85 75 -126 103 -150 106 -69 9 -77 -40 -16 -93 96 -84 148 -136 148 -147
0 -16 -72 -35 -190 -50 -150 -19 -210 -39 -210 -69 0 -23 38 -49 72 -49 77 -1
166 7 208 19 25 7 60 16 78 19 17 3 44 7 60 10 15 2 33 0 41 -5 22 -13 0 -34
-51 -50 -119 -38 -298 -157 -379 -253 l-54 -64 -158 -39 -158 -38 -44 23 c-43
23 -116 94 -162 156 -78 108 -154 210 -189 256 -22 30 -65 92 -94 139 -91 144
-190 263 -256 306 -18 12 -21 23 -18 67 5 81 13 126 29 164 l15 35 32 -23 c18
-13 64 -50 103 -82 41 -34 114 -80 181 -113 l112 -56 -5 -33 c-4 -27 -1 -36
20 -49 39 -26 86 -37 175 -41 69 -3 83 -2 78 10 -2 7 -8 29 -11 47 -6 30 -18
40 -133 106 -70 40 -179 111 -242 157 -63 46 -152 108 -197 137 -79 51 -105
87 -65 89 9 0 26 2 37 4 11 2 51 7 90 10 38 3 77 8 85 10 8 2 40 7 70 10 30 3
66 8 80 10 14 2 52 6 85 10 93 9 135 16 159 24 37 14 70 2 104 -36 l34 -38 37
43 c23 26 52 79 75 135 32 82 35 96 24 120 -13 26 -20 29 -83 30 -47 0 -53 -4
-71 -54 -21 -57 -31 -65 -94 -73 -25 -3 -61 -8 -80 -11 -19 -3 -55 -7 -80 -9
-99 -10 -156 -19 -167 -28 -8 -6 -24 -6 -45 1 -18 6 -79 11 -135 10 -154 -1
-156 3 -48 108 50 48 132 126 183 171 87 79 111 109 126 158 8 28 -28 44 -97
44 -49 0 -56 -3 -105 -50 -28 -27 -64 -57 -79 -67 -16 -9 -54 -37 -85 -61 -31
-24 -65 -42 -75 -40 -27 5 -56 99 -55 177 1 35 3 65 5 68 3 2 44 6 93 9 52 3
103 12 125 22 l38 17 -27 33 c-23 27 -37 35 -72 38 -25 2 -63 6 -85 9 -22 2
-69 7 -105 11 -36 3 -69 6 -75 8 -5 1 -20 0 -32 -2z m176 -1499 c32 -92 168
-304 294 -458 8 -11 28 -35 43 -54 36 -43 114 -93 180 -115 29 -9 60 -26 70
-37 19 -21 18 -21 -11 -46 -17 -13 -77 -52 -134 -85 -116 -69 -192 -134 -242
-207 -19 -27 -41 -53 -50 -58 -31 -15 -94 -78 -126 -126 -42 -64 -47 -58 -60
93 -11 115 -10 453 1 570 9 103 9 98 2 345 -5 163 -2 215 13 215 4 0 13 -17
20 -37z m-288 -410 c0 -10 2 -26 4 -35 12 -62 21 -570 11 -586 -3 -5 -6 -66
-7 -135 0 -70 -3 -127 -5 -127 -2 0 -40 29 -84 65 -44 35 -92 72 -107 82 -16
10 -30 20 -33 23 -34 39 -383 230 -419 230 -6 0 -11 3 -11 8 0 8 31 30 235
172 72 49 166 125 210 168 146 142 204 180 206 135z m1634 -337 c100 -47 158
-97 199 -168 52 -89 70 -211 43 -287 -10 -29 -20 -37 -67 -53 -67 -22 -117
-30 -193 -29 -70 2 -92 10 -137 51 -19 18 -53 44 -75 58 -22 14 -44 30 -48 36
-11 16 1 179 19 251 21 84 64 167 94 182 32 16 57 10 165 -41z m1207 -5 c18
-2 40 -40 77 -135 23 -58 41 -114 41 -126 0 -19 -4 -21 -27 -16 -63 15 -174
79 -231 134 -66 62 -67 69 -10 106 32 21 107 45 128 40 8 -1 18 -3 22 -3z
m-5682 -91 c44 -23 75 -50 113 -101 21 -28 24 -38 15 -46 -12 -10 -215 -83
-286 -105 -19 -5 -36 -7 -39 -4 -11 10 -20 86 -19 154 1 54 5 75 20 91 38 42
125 47 196 11z m1590 -147 c1 -23 35 -46 82 -57 69 -15 80 -35 73 -137 -9
-133 -15 -162 -53 -232 -63 -118 -161 -162 -258 -116 -38 18 -43 27 -74 106
-59 155 -58 169 18 280 50 73 84 105 147 137 53 27 65 30 65 19z m4786 -128
c25 -19 33 -36 46 -95 14 -65 15 -77 1 -128 -15 -55 -42 -92 -68 -92 -13 0
-258 185 -263 198 -1 4 11 15 27 25 17 10 42 40 57 67 16 30 35 51 48 53 46 9
121 -5 152 -28z m-6983 1 c38 -16 193 -122 203 -138 5 -7 -6 -22 -26 -37 -19
-15 -52 -44 -75 -66 -22 -21 -55 -47 -73 -57 -18 -10 -58 -39 -88 -63 -30 -25
-59 -45 -64 -45 -5 0 -21 16 -36 35 -19 26 -33 66 -51 155 -32 153 -28 184 30
211 50 22 134 25 180 5z m6660 -294 c111 -80 231 -202 261 -266 22 -47 84
-132 139 -191 19 -20 117 -215 117 -232 0 -10 -89 -97 -180 -175 -36 -30 -85
-74 -110 -97 -25 -23 -79 -72 -121 -109 -42 -37 -87 -83 -100 -102 -26 -38
-67 -78 -200 -191 -241 -208 -319 -276 -366 -320 -67 -64 -84 -65 -77 -1 9 83
45 234 78 332 34 100 43 132 102 400 20 91 60 237 89 325 30 89 57 181 60 205
4 25 8 50 9 55 2 6 6 27 11 49 6 28 16 43 41 58 38 22 41 29 49 123 7 87 21
141 46 182 18 29 23 31 47 22 14 -6 62 -36 105 -67z m679 -111 c13 -2 56 -85
68 -130 16 -62 20 -160 7 -188 -6 -14 -24 -31 -39 -39 -26 -14 -31 -13 -57 5
-42 30 -81 78 -124 151 -21 36 -59 88 -84 115 l-47 50 60 5 c34 3 67 10 75 17
13 11 84 21 119 16 8 -1 18 -2 22 -2z m-7054 -87 c67 -33 102 -75 102 -122 1
-20 8 -55 16 -77 17 -46 19 -55 29 -115 4 -25 27 -137 52 -250 50 -230 65
-312 78 -435 3 -33 10 -76 14 -96 10 -43 5 -169 -6 -180 -7 -7 -193 176 -251
246 -9 12 -37 46 -62 75 -49 61 -77 91 -174 195 -36 38 -66 76 -66 83 0 8 -54
68 -120 134 l-119 120 17 27 c9 14 64 76 123 136 59 61 124 131 145 156 40 47
141 129 160 129 5 0 33 -12 62 -26z m-701 -33 c39 -18 63 -45 63 -71 0 -6 -50
-62 -110 -124 l-111 -113 -42 7 c-63 10 -80 25 -102 93 -27 82 -26 97 4 130
37 40 79 64 142 81 73 20 106 19 156 -3z m6493 -150 c-1 -54 -16 -111 -51
-186 -42 -92 -64 -157 -79 -240 -19 -104 -39 -176 -61 -213 -10 -18 -19 -40
-19 -47 0 -29 -73 -231 -106 -296 -19 -36 -34 -71 -34 -79 0 -7 -18 -58 -40
-112 -22 -55 -40 -108 -40 -117 0 -9 -8 -32 -18 -51 -11 -20 -20 -61 -21 -94
-1 -33 -11 -80 -21 -106 -10 -26 -17 -56 -16 -66 5 -33 -31 -70 -95 -99 -54
-24 -76 -28 -168 -29 -58 -1 -133 2 -166 6 -194 27 -341 52 -420 73 -138 37
-225 49 -340 48 -123 -2 -174 -11 -332 -65 -165 -55 -233 -96 -259 -155 -6
-15 -33 -50 -58 -76 -44 -46 -47 -47 -54 -26 -5 13 -6 61 -3 108 3 47 5 120 4
161 0 41 -1 113 -2 160 -1 47 1 96 4 110 9 45 19 183 18 250 -1 56 -2 239 -3
747 l0 111 42 20 c147 67 253 121 321 164 141 88 162 93 392 92 208 0 250 -7
464 -75 34 -11 48 -14 136 -23 429 -48 686 -13 950 127 58 31 75 26 75 -22z
m-5286 -105 c24 -30 60 -57 106 -80 39 -19 83 -44 99 -56 71 -50 217 -83 366
-84 223 0 478 42 785 129 30 9 64 18 75 20 85 16 151 25 215 30 41 3 102 8
135 11 75 8 348 7 395 -1 99 -17 169 -43 307 -112 85 -42 153 -83 155 -92 3
-9 6 -47 7 -86 1 -41 10 -87 21 -112 15 -33 18 -61 15 -135 -2 -52 -10 -112
-17 -134 -15 -42 -16 -205 -2 -339 10 -96 12 -452 3 -495 -4 -19 -10 -80 -13
-135 -8 -123 -9 -134 -32 -227 -1 -5 -2 -17 -3 -28 0 -11 -6 -20 -12 -20 -6 0
-49 32 -96 70 -254 210 -554 358 -898 445 -92 24 -131 28 -240 28 -303 0 -442
-21 -689 -104 -130 -44 -161 -51 -231 -51 -164 -1 -211 17 -317 127 -45 46
-54 71 -72 195 -16 113 -22 150 -31 200 -3 14 -7 48 -10 75 -4 28 -9 58 -11
67 -3 10 -7 48 -9 85 -3 37 -7 84 -10 103 -3 19 -7 58 -11 85 -3 28 -8 59 -11
70 -4 11 -7 115 -8 230 -1 116 -6 245 -10 288 -5 49 -4 77 3 77 5 0 26 -20 46
-44z m6997 -62 c20 -10 29 -26 42 -82 23 -94 22 -147 -2 -169 -10 -10 -37 -35
-60 -56 -99 -92 -119 -86 -202 61 -11 18 -25 48 -33 66 l-14 34 66 41 c55 34
68 47 77 78 15 53 57 62 126 27z m-8464 -175 c14 -14 7 -34 -22 -65 -13 -14
-33 -53 -45 -87 -59 -164 -67 -182 -80 -182 -31 1 -76 24 -114 58 -39 35 -40
38 -38 98 2 92 32 125 143 161 91 29 139 34 156 17z m391 -93 c16 -19 38 -56
47 -82 10 -27 31 -66 47 -86 15 -20 28 -39 28 -43 0 -3 -41 -67 -92 -143 -64
-95 -104 -169 -133 -242 -23 -58 -46 -114 -50 -125 -4 -11 -9 -24 -11 -30 -2
-5 -14 -39 -27 -75 -26 -68 -47 -219 -48 -334 -1 -60 -3 -68 -23 -76 -25 -9
-72 -12 -154 -11 l-54 1 6 45 c4 25 8 50 11 57 2 7 6 29 9 48 12 80 77 392
101 485 27 104 65 206 98 265 10 19 36 64 57 100 20 36 46 87 56 115 30 81 78
165 94 165 4 0 21 -15 38 -34z m7647 -116 c56 -110 107 -189 163 -251 23 -24
43 -58 47 -75 3 -18 16 -47 28 -65 12 -19 35 -72 50 -117 15 -46 43 -111 62
-144 38 -64 96 -212 126 -318 10 -36 27 -85 38 -110 11 -24 18 -47 16 -50 -2
-3 -88 -5 -192 -5 l-188 1 -1 29 c-3 67 -16 183 -25 220 -13 53 -26 87 -116
300 -68 161 -82 187 -136 245 -106 116 -122 131 -154 151 -18 12 -33 25 -33
30 0 23 254 268 266 255 1 0 23 -44 49 -96z m723 -146 c36 -21 42 -30 42 -57
-1 -94 -116 -217 -204 -217 -21 0 -34 12 -67 63 -40 62 -91 162 -104 205 -4
15 -2 22 7 23 7 1 24 2 38 4 14 1 57 6 95 10 39 4 71 9 73 10 7 7 80 -18 120
-41z m-8082 -91 c75 -55 142 -129 152 -165 8 -30 5 -38 -38 -93 -58 -74 -139
-194 -174 -258 -28 -51 -45 -154 -36 -222 6 -43 -5 -92 -25 -114 -14 -14 -111
-20 -156 -8 -22 6 -27 15 -39 74 -18 91 -19 204 -4 279 14 67 126 374 151 414
36 57 96 130 108 130 7 0 34 -16 61 -37z m-916 -34 c0 -6 -4 -29 -9 -52 -10
-47 -28 -138 -35 -178 -5 -29 -51 -125 -64 -133 -13 -8 -92 25 -93 38 -1 6 -2
16 -3 21 0 6 -13 29 -28 52 -31 47 -71 160 -64 178 8 21 107 64 166 72 84 12
130 13 130 2z m7844 -79 c43 -38 143 -193 182 -280 16 -36 41 -85 56 -110 39
-65 61 -155 47 -198 -7 -20 -8 -60 -4 -101 6 -63 5 -70 -15 -84 -19 -13 -123
-18 -135 -5 -2 2 -27 89 -55 193 -28 104 -61 212 -74 240 -29 65 -76 112 -160
162 l-66 40 83 86 c45 48 87 87 94 87 7 0 28 -14 47 -30z m1332 -251 c28 -27
31 -36 29 -77 -5 -91 -15 -102 -165 -162 -86 -34 -84 -36 -125 55 -22 47 -52
171 -44 179 4 4 61 12 154 22 33 3 61 7 62 8 1 1 14 3 29 4 20 1 38 -7 60 -29z
m-9320 -226 c-16 -78 -15 -111 5 -153 l21 -42 -27 -60 c-15 -33 -25 -68 -22
-78 4 -15 1 -16 -28 -8 -54 17 -200 121 -203 145 -4 28 32 99 72 141 44 47
108 79 164 81 21 1 23 -3 18 -26z m9278 -268 c31 -15 66 -60 66 -87 0 -21 -78
-59 -134 -65 l-52 -5 -12 64 c-7 36 -12 72 -12 81 0 27 95 35 144 12z"/>
<path d="M11467 13074 c-43 -22 -84 -34 -212 -59 -125 -24 -269 -15 -395 25
-154 49 -365 60 -482 24 -9 -3 -25 -6 -35 -8 -93 -19 -233 -86 -291 -140 -34
-32 -34 -32 -18 -69 8 -20 20 -37 27 -37 28 0 136 34 207 64 138 61 239 75
342 49 282 -72 385 -75 640 -22 144 31 228 57 303 96 54 28 67 40 67 59 0 49
-78 59 -153 18z"/>
<path d="M11344 12786 c-7 -18 -79 -52 -141 -67 -107 -24 -297 -15 -443 21
-25 6 -56 13 -70 16 -14 2 -34 7 -45 11 -41 12 -204 11 -268 -3 -76 -16 -239
-75 -295 -106 -56 -32 -92 -69 -92 -94 0 -36 21 -74 41 -74 10 0 58 20 106 44
191 95 305 117 424 83 55 -16 76 -20 173 -32 27 -3 53 -8 57 -10 12 -8 112
-19 169 -19 168 0 223 10 396 74 156 57 171 65 197 100 30 43 30 43 -43 54
-107 16 -160 16 -166 2z"/>
<path d="M11385 12498 c-16 -6 -52 -28 -80 -48 -80 -61 -199 -85 -328 -68
-119 16 -130 18 -247 48 -55 15 -115 22 -170 23 -141 0 -190 -9 -365 -63 -38
-12 -79 -24 -90 -27 -35 -8 -126 -77 -147 -110 l-19 -32 40 -25 40 -26 123 44
c234 82 273 85 463 41 107 -26 138 -29 260 -28 186 2 299 15 389 45 77 25 267
124 281 146 6 9 22 34 34 55 l23 37 -89 -1 c-48 0 -101 -5 -118 -11z"/>
<path d="M10440 12100 c-186 -26 -411 -110 -527 -198 l-52 -39 27 -26 c42 -40
89 -36 281 27 91 30 190 59 219 64 72 13 181 8 357 -17 148 -21 314 -7 460 38
71 22 165 69 165 82 0 4 3 14 6 22 4 10 -5 18 -28 26 -58 19 -129 19 -207 0
-92 -23 -140 -23 -251 -4 -172 29 -345 39 -450 25z"/>
<path d="M8447 13045 c-1 -2 -40 -5 -87 -8 -115 -8 -166 -19 -310 -66 -67 -23
-132 -43 -144 -46 -11 -2 -91 -23 -176 -45 -254 -68 -327 -62 -500 36 -100 57
-120 63 -140 39 -14 -17 -15 -88 -1 -141 19 -73 21 -99 21 -264 0 -135 -4
-181 -20 -245 -12 -44 -28 -85 -36 -91 -23 -18 -16 -32 25 -54 28 -14 43 -30
50 -53 11 -33 14 -35 114 -58 81 -19 127 -23 227 -22 232 3 270 8 490 63 131
33 168 39 240 36 106 -4 187 -31 289 -96 42 -27 101 -58 131 -69 46 -17 134
-78 254 -174 37 -30 132 -34 189 -9 26 12 47 25 47 29 0 4 -28 27 -63 51 -34
24 -91 68 -127 97 -36 30 -85 64 -110 77 -25 13 -79 46 -120 73 -87 59 -260
130 -361 150 -68 12 -242 13 -299 1 -53 -12 -76 -16 -99 -21 -14 -3 -68 -13
-120 -24 -151 -31 -282 -40 -390 -27 -71 9 -70 7 -62 156 3 50 10 53 149 56
122 2 137 5 248 43 135 45 184 59 246 67 24 3 61 9 83 13 61 10 243 5 308 -8
45 -10 69 -23 111 -59 30 -26 91 -69 137 -97 48 -28 117 -81 159 -123 81 -79
131 -113 196 -132 36 -11 47 -10 86 8 60 26 70 63 26 100 -16 14 -42 50 -58
81 -31 61 -114 145 -176 176 -66 33 -137 81 -175 118 -61 58 -167 82 -359 81
-217 -1 -331 -18 -565 -86 -167 -49 -273 -56 -340 -23 -50 24 -65 43 -60 74 5
31 3 29 67 36 50 6 211 38 248 50 8 2 84 23 168 45 84 22 185 54 225 70 39 17
91 36 117 41 25 6 54 13 65 15 43 10 132 13 167 5 69 -16 431 -239 484 -299
31 -34 33 -35 114 -36 78 -1 83 0 106 27 13 15 24 31 24 35 0 24 -117 144
-210 216 -79 61 -237 151 -306 175 -50 17 -189 42 -197 36z"/>
<path d="M13445 15289 c-166 -19 -245 -35 -325 -65 -25 -9 -66 -18 -93 -20
-119 -9 -300 -151 -395 -310 -40 -66 -40 -66 -27 -119 11 -51 43 -113 84 -164
l19 -25 45 18 c58 22 106 75 153 171 39 77 123 196 179 252 41 40 96 68 165
82 30 6 66 14 80 17 14 3 70 7 125 10 89 3 108 0 170 -22 39 -15 111 -41 160
-59 110 -40 134 -53 193 -101 115 -92 235 -281 257 -402 2 -16 16 -62 29 -104
19 -58 24 -88 20 -129 -8 -80 -8 -100 -1 -144 20 -118 20 -114 -7 -136 -24
-19 -26 -26 -26 -109 0 -71 6 -109 31 -187 16 -54 35 -114 40 -133 6 -19 33
-88 60 -152 43 -101 48 -120 38 -145 -13 -34 -15 -22 21 -89 16 -31 30 -64 30
-74 0 -27 36 -58 113 -96 40 -20 90 -49 112 -64 37 -25 66 -39 136 -68 25 -10
64 -15 199 -27 124 -11 308 -59 389 -102 15 -7 30 -13 35 -13 18 0 126 -72
172 -115 27 -25 52 -45 55 -45 4 0 10 -16 13 -35 4 -19 20 -47 36 -64 16 -16
32 -44 36 -62 3 -19 7 -38 8 -44 12 -48 27 -200 27 -265 -2 -198 -1 -204 40
-288 l31 -63 -32 -35 c-66 -75 -19 -134 108 -134 34 0 77 -6 95 -13 41 -17
200 -11 239 9 32 17 74 69 88 110 5 16 19 83 30 149 11 66 24 136 27 155 9 48
9 106 0 160 -18 114 -30 167 -42 197 -8 18 -12 33 -9 33 9 0 -60 127 -106 195
-27 39 -63 84 -81 101 -49 45 -158 111 -220 133 -30 11 -97 39 -149 64 -120
57 -193 82 -300 100 -253 45 -429 190 -554 459 -53 116 -95 249 -102 325 -3
37 -16 111 -29 163 -13 52 -26 111 -29 130 -29 184 -70 351 -105 429 -21 47
-41 93 -44 102 -14 41 -196 297 -251 352 -111 112 -254 189 -495 268 -118 38
-130 40 -265 43 -77 1 -168 -1 -201 -5z"/>
<path d="M5478 15255 c-1 -1 -65 -5 -140 -9 -86 -3 -151 -11 -173 -20 -19 -8
-54 -18 -78 -21 -104 -15 -187 -44 -331 -117 -198 -99 -293 -166 -345 -243
-17 -25 -58 -78 -92 -119 -35 -41 -64 -85 -66 -98 -5 -33 -23 -76 -54 -128
-15 -25 -36 -74 -48 -110 -54 -169 -63 -202 -67 -247 -6 -51 -83 -186 -133
-231 -86 -79 -236 -143 -471 -202 -190 -48 -460 -206 -460 -270 0 -14 -21 -43
-55 -76 -30 -30 -55 -61 -55 -69 0 -8 -14 -30 -31 -50 -17 -19 -50 -81 -73
-138 -28 -70 -61 -128 -103 -182 -51 -68 -60 -85 -56 -112 3 -20 -5 -55 -21
-97 -28 -69 -33 -108 -40 -302 -4 -95 -2 -125 9 -140 8 -11 15 -28 15 -39 0
-11 7 -30 15 -42 8 -11 23 -58 34 -103 12 -54 27 -91 43 -108 14 -15 40 -69
58 -120 21 -60 40 -97 53 -104 11 -5 39 -28 63 -50 57 -52 101 -67 178 -59 60
5 117 6 306 2 72 -2 111 3 162 19 37 11 70 25 73 30 10 16 -138 81 -196 86
-109 10 -170 35 -254 102 -42 34 -55 51 -74 107 -15 41 -25 97 -27 144 -2 42
-9 101 -15 131 -11 53 -13 142 -5 187 3 12 7 57 11 100 14 182 25 221 115 410
106 221 97 207 201 312 126 128 250 207 438 280 55 22 101 38 101 36 0 -9 297
97 338 121 113 65 296 228 334 298 49 88 127 242 219 433 120 247 126 257 255
433 66 89 106 134 141 156 54 35 158 78 221 92 40 9 258 8 312 -1 94 -17 192
-84 246 -168 19 -31 47 -144 61 -249 8 -60 58 -88 138 -76 53 8 56 16 57 124
2 142 -31 233 -116 317 -56 56 -130 96 -221 119 -85 22 -229 46 -305 52 -36 3
-70 7 -77 9 -6 2 -13 2 -15 0z"/>
<path d="M13469 14839 c-72 -8 -169 -35 -210 -59 -36 -21 -92 -72 -107 -98 -6
-12 -15 -38 -18 -58 -7 -44 13 -169 34 -209 23 -45 93 -135 113 -145 25 -14
71 -12 110 4 19 7 66 14 104 15 68 2 265 51 292 73 18 14 9 172 -15 268 l-18
75 45 21 46 20 -75 38 c-91 44 -203 65 -301 55z m69 -133 c51 -48 67 -97 57
-174 -8 -62 -32 -93 -67 -85 -87 19 -125 38 -166 82 -37 41 -41 50 -36 81 9
53 50 103 108 134 36 18 51 13 104 -38z"/>
<path d="M5333 14815 c-72 -20 -130 -50 -149 -80 -13 -19 -15 -48 -12 -153 l3
-129 34 -39 c42 -49 46 -51 101 -59 79 -12 175 -8 207 8 16 9 53 18 81 20 29
3 63 12 77 21 44 29 76 89 82 155 5 52 2 68 -21 113 -29 59 -91 113 -158 140
-53 21 -173 22 -245 3z m188 -80 c41 -22 69 -71 69 -123 0 -50 -11 -75 -52
-118 -27 -29 -32 -31 -70 -23 -59 14 -112 44 -127 72 -24 45 12 157 61 191 29
20 81 20 119 1z"/>
<path d="M3808 12953 c-9 -2 -21 -17 -28 -32 -9 -24 -27 -34 -98 -61 -172 -63
-204 -87 -249 -190 -45 -101 -44 -203 3 -320 33 -82 41 -92 139 -157 l97 -65
107 1 c99 1 132 4 206 15 17 3 53 8 80 12 64 8 67 10 108 70 107 155 157 357
112 445 -8 15 -15 35 -15 43 0 22 -56 101 -86 120 -24 16 -304 114 -342 120
-9 1 -24 1 -34 -1z m68 -180 c59 -20 112 -52 119 -73 5 -17 12 -63 19 -128 4
-35 -3 -61 -35 -135 -22 -51 -51 -105 -65 -121 -23 -26 -29 -28 -75 -23 -58 7
-154 56 -195 98 -28 29 -29 34 -29 127 0 88 3 103 30 157 52 104 123 135 231
98z"/>
<path d="M15186 12669 c-15 -4 -37 -16 -48 -25 -13 -13 -39 -19 -86 -20 -180
-7 -239 -33 -326 -147 -31 -41 -69 -175 -60 -214 10 -42 93 -181 112 -187 46
-15 160 -23 277 -21 243 5 266 15 307 130 40 112 47 169 31 228 -22 74 -124
237 -161 256 -10 4 -30 5 -46 0z m-38 -188 c38 -42 51 -86 54 -188 3 -76 -23
-109 -85 -106 -51 3 -122 31 -154 62 -13 12 -31 38 -42 59 -19 37 -19 38 3 92
32 85 62 117 119 130 36 8 67 -6 105 -49z"/>
<path d="M12517 10396 c-22 -21 -24 -29 -22 -107 1 -47 5 -94 8 -105 7 -25 20
-142 32 -304 3 -41 8 -100 10 -130 3 -30 7 -113 10 -185 3 -71 8 -188 11 -260
3 -71 6 -153 5 -181 -1 -28 5 -79 13 -115 8 -35 20 -102 27 -149 24 -175 24
-174 -92 -175 -101 -1 -98 -3 -168 140 -107 217 -156 354 -212 585 -43 179
-79 300 -169 570 -32 96 -61 200 -65 230 -10 87 -26 102 -138 126 l-95 20 -41
-47 c-35 -41 -44 -62 -74 -180 -19 -74 -38 -152 -42 -174 -4 -22 -9 -51 -11
-65 -3 -14 -10 -43 -16 -65 -5 -22 -12 -47 -13 -55 -2 -8 -9 -31 -15 -50 -6
-19 -20 -74 -30 -122 -10 -47 -29 -108 -42 -135 -14 -26 -28 -67 -31 -89 -4
-23 -18 -66 -32 -95 -13 -30 -32 -87 -41 -128 -19 -83 -12 -96 40 -85 30 7 31
7 88 18 45 10 70 35 103 109 l26 57 122 1 c67 0 136 2 152 5 17 2 44 6 62 8
29 4 33 1 53 -41 12 -25 30 -69 41 -97 11 -28 41 -89 66 -136 25 -47 58 -116
73 -155 15 -38 50 -107 78 -153 28 -46 52 -88 54 -94 3 -9 36 -8 124 2 136 16
130 16 244 -12 107 -26 250 -31 267 -8 18 22 16 62 -6 128 -10 31 -21 77 -25
102 -3 25 -10 71 -15 104 -18 102 -23 185 -26 441 -2 138 -7 266 -12 285 -7
29 -9 81 -4 124 1 5 19 -16 40 -46 21 -31 63 -81 93 -111 58 -58 95 -121 154
-263 67 -164 86 -197 135 -245 34 -33 66 -82 109 -166 75 -148 126 -209 185
-224 34 -9 50 -20 69 -50 25 -36 30 -39 74 -39 26 1 73 7 105 15 31 7 61 13
65 13 4 0 15 14 24 31 13 22 18 62 21 155 3 68 8 130 12 136 14 22 8 174 -9
230 -14 47 -15 91 -10 320 3 146 7 344 7 440 2 150 5 180 20 203 9 15 22 27
28 27 6 0 32 9 58 21 83 35 88 99 9 128 -18 7 -49 22 -68 32 -98 55 -93 54
-150 26 -43 -22 -61 -25 -120 -22 -39 3 -79 9 -89 15 -15 7 -31 5 -64 -9 -55
-24 -62 -34 -47 -71 17 -41 53 -62 140 -81 54 -12 74 -20 71 -30 -1 -8 -2 -45
-2 -84 6 -259 -1 -1006 -9 -1035 -7 -24 -8 -24 -15 -5 -23 56 -125 175 -198
229 -47 36 -126 153 -155 231 -13 33 -61 134 -106 225 -46 91 -109 230 -139
310 -81 212 -91 234 -127 263 -26 22 -41 27 -89 27 -47 0 -66 5 -103 30 -63
42 -155 49 -191 16z m-707 -713 c5 -31 16 -77 25 -103 17 -52 22 -74 31 -140
9 -68 -3 -74 -146 -74 -65 -1 -121 1 -124 4 -7 8 19 110 41 160 12 25 31 70
43 100 12 30 36 86 53 124 l31 69 19 -42 c10 -23 22 -67 27 -98z"/>
<path d="M16924 10318 c-49 -30 -52 -35 -74 -107 -12 -42 -34 -98 -47 -125
-22 -43 -75 -260 -142 -579 -11 -54 -27 -105 -35 -113 -9 -8 -19 -21 -23 -28
-6 -9 -49 -15 -148 -19 -77 -4 -149 -9 -160 -11 -11 -3 -31 -5 -45 -5 -38 -2
-51 -15 -57 -54 -4 -33 -1 -38 29 -57 39 -24 84 -37 153 -44 180 -20 167 -8
149 -136 -20 -150 -85 -330 -151 -417 l-24 -33 61 -39 c109 -70 186 -87 303
-65 119 22 158 36 174 60 24 37 10 68 -44 96 -27 13 -53 35 -60 48 -14 29 -9
137 12 262 9 51 18 103 20 115 2 12 9 31 15 43 12 23 26 23 144 5 11 -2 53 -6
91 -9 119 -11 124 -13 183 -101 70 -104 103 -176 101 -217 -1 -18 15 -86 35
-150 l37 -117 42 -16 c52 -19 109 -24 162 -13 22 5 65 11 95 14 69 8 88 18 96
49 8 33 -21 119 -57 170 -16 22 -38 69 -50 105 -11 36 -35 92 -53 125 -44 80
-52 115 -29 116 70 3 150 35 170 68 23 37 -22 121 -76 142 -26 10 -127 13
-181 4 -46 -7 -86 10 -99 43 -6 15 -31 108 -56 207 -55 216 -62 242 -132 463
-61 196 -79 222 -171 256 -29 10 -52 21 -52 25 0 3 -13 20 -28 38 l-27 32 -51
-31z m51 -490 c15 -70 68 -289 94 -392 36 -140 37 -152 12 -159 -22 -5 -139
16 -182 33 -30 13 -30 14 -24 69 3 31 8 65 10 76 2 11 7 58 10 105 3 47 8 94
11 105 2 11 6 33 8 48 9 54 37 137 46 137 5 0 12 -10 15 -22z"/>
<path d="M1802 10297 c-15 -4 -49 -10 -77 -14 -60 -6 -156 -38 -166 -54 -7
-11 2 -48 21 -94 30 -71 40 -123 31 -168 -9 -52 -6 -102 11 -155 7 -23 6 -47
-2 -82 -9 -37 -9 -54 0 -70 10 -19 8 -90 -5 -162 -2 -9 -7 -48 -10 -85 -4 -37
-8 -79 -10 -93 -9 -62 -18 -167 -17 -190 1 -14 2 -131 2 -260 1 -212 -1 -242
-21 -305 -11 -38 -23 -86 -26 -105 l-5 -35 424 -3 c233 -1 466 -3 518 -4 95
-2 172 17 223 55 15 10 29 66 29 117 1 8 11 29 23 45 l22 30 -20 53 c-19 50
-29 58 -66 52 -28 -3 -71 -44 -82 -77 -6 -18 -15 -33 -20 -33 -5 0 -31 -14
-59 -31 -50 -31 -98 -41 -242 -55 -72 -6 -124 5 -169 38 -14 11 -32 21 -40 22
-8 2 -35 6 -60 10 -40 7 -53 16 -99 67 l-52 60 2 187 c1 196 6 397 8 421 2 10
24 12 115 6 61 -3 126 -8 142 -10 31 -4 124 -12 235 -20 36 -3 89 -7 118 -11
40 -4 71 0 120 17 37 12 71 25 76 30 27 25 -97 110 -179 123 -39 6 -89 9 -420
21 -161 6 -199 11 -191 23 6 11 16 93 31 257 5 61 6 69 26 165 19 98 17 96
176 99 76 1 154 4 173 6 49 6 278 6 317 1 46 -7 72 -23 79 -50 3 -12 4 -69 2
-126 -4 -124 1 -130 84 -113 35 7 62 7 81 0 40 -13 49 -1 54 80 3 42 13 82 26
105 l20 37 -27 31 c-33 40 -33 45 4 60 21 9 33 23 40 48 5 20 8 37 7 37 -1 1
-33 14 -72 28 -109 41 -160 50 -223 43 -66 -8 -188 -15 -351 -20 -100 -2 -130
1 -227 26 -115 29 -250 40 -302 25z"/>
<path d="M14538 10285 c-3 -3 -74 -8 -159 -11 -196 -7 -208 -10 -237 -74 -18
-40 -22 -59 -16 -102 10 -88 23 -127 47 -139 27 -15 121 -12 161 5 29 12 77
56 62 56 -3 0 3 18 14 39 l20 40 62 -5 c70 -6 77 -7 131 -18 48 -11 48 -10 63
-111 3 -22 12 -67 19 -100 19 -85 24 -125 30 -250 6 -121 12 -254 19 -385 3
-47 7 -141 11 -210 7 -160 14 -258 21 -292 12 -59 -23 -79 -144 -83 -50 -1
-69 3 -96 21 -32 22 -36 22 -87 9 -82 -22 -115 -69 -88 -127 16 -37 120 -67
212 -62 39 3 81 6 92 8 68 10 198 19 310 21 238 3 221 1 239 39 9 19 16 40 16
48 0 7 -36 39 -80 71 -70 50 -80 61 -81 90 -1 17 0 37 1 42 5 23 2 184 -5 235
-4 30 -9 68 -11 83 -2 15 -5 44 -8 65 -3 20 -8 60 -11 87 -3 28 -7 68 -10 90
-8 71 -16 168 -20 250 -5 79 -8 130 -21 275 -12 131 -6 144 65 136 25 -3 78
-8 116 -11 39 -3 91 -8 116 -11 49 -5 79 11 79 42 0 10 6 13 18 10 113 -33
160 -30 204 11 l27 25 27 -21 c16 -12 29 -30 31 -39 1 -9 5 -42 9 -72 3 -30 8
-58 10 -61 4 -7 13 -241 17 -473 3 -132 5 -150 22 -162 23 -17 29 -84 27 -299
0 -104 -5 -163 -15 -191 -8 -23 -14 -64 -13 -92 1 -29 -1 -52 -4 -53 -3 0 -12
-2 -20 -3 -8 -2 -50 -7 -92 -10 -109 -11 -113 -22 -34 -89 l66 -56 97 0 c54 0
118 -1 143 -2 111 -4 118 -2 176 52 59 57 59 69 0 89 -38 12 -51 43 -61 145
-14 146 -28 254 -42 335 -8 45 -10 221 -4 380 2 47 -2 108 -8 135 -11 54 -9
384 3 404 4 6 25 20 47 31 38 20 42 27 42 85 0 8 -1 19 -2 23 0 5 -26 26 -57
47 -71 49 -126 55 -243 27 -97 -23 -120 -22 -233 14 -46 15 -104 28 -130 29
-45 3 -47 2 -54 -29 -5 -17 -8 -35 -9 -41 -1 -15 -28 -6 -45 15 -33 42 -102
55 -340 66 -199 9 -388 13 -392 9z"/>
<path d="M3265 10223 c-70 -72 -79 -87 -64 -115 7 -13 21 -32 33 -43 30 -28
51 -64 66 -110 16 -50 34 -79 82 -133 54 -60 95 -127 113 -186 9 -28 23 -73
31 -99 21 -61 14 -94 -35 -177 -44 -75 -90 -163 -121 -235 -46 -106 -75 -160
-110 -204 -20 -25 -49 -68 -65 -96 -15 -27 -47 -75 -70 -105 -43 -57 -127
-192 -138 -222 -4 -11 0 -21 11 -27 9 -5 112 -8 229 -7 209 1 212 2 237 25 19
18 26 35 26 62 0 32 -5 40 -34 57 -19 11 -42 32 -51 45 -18 29 -22 21 101 208
34 52 84 139 110 193 25 53 51 95 56 94 20 -7 257 -459 264 -503 4 -25 0 -33
-23 -48 -15 -11 -36 -30 -47 -44 -26 -34 -8 -49 69 -57 80 -9 140 -17 199 -26
71 -11 191 -5 271 14 96 23 103 28 82 59 -12 19 -32 29 -74 38 -32 7 -70 18
-85 26 -72 35 -209 254 -404 642 -113 225 -112 211 -28 361 58 105 127 251
143 305 7 22 20 55 29 73 l17 32 96 0 c138 0 154 5 195 58 19 25 32 47 30 49
-2 2 -36 13 -77 25 -47 13 -79 28 -91 44 -15 18 -26 22 -51 18 -33 -5 -97 -10
-252 -19 -49 -3 -99 -7 -110 -9 -11 -3 -32 -5 -47 -5 -15 -1 -34 -8 -43 -17
-14 -15 -14 -19 4 -47 12 -20 35 -37 59 -45 l39 -13 -23 -47 c-13 -26 -40
-104 -60 -174 -42 -145 -38 -143 -110 -43 -47 67 -94 160 -94 188 0 10 15 32
34 50 49 47 52 64 16 97 -22 21 -52 34 -106 46 -66 14 -78 21 -106 55 -42 52
-65 51 -123 -8z"/>
<path d="M9400 10224 c-125 -23 -118 -19 -282 -171 -20 -18 -43 -49 -52 -68
-25 -52 -104 -408 -111 -500 -4 -44 -10 -93 -15 -110 -5 -16 -10 -46 -11 -65
-2 -31 10 -254 16 -305 1 -11 3 -27 4 -36 0 -9 13 -34 27 -55 22 -32 27 -50
26 -101 -1 -60 1 -64 36 -93 41 -33 87 -57 212 -107 68 -27 103 -35 175 -39
50 -3 125 -12 169 -20 100 -18 106 -18 106 5 0 11 15 30 33 42 17 13 43 34 55
47 34 36 133 192 144 227 5 17 14 39 18 50 15 35 52 203 66 300 1 11 8 45 14
75 11 53 15 254 6 296 -2 11 -7 60 -11 110 -8 106 -23 159 -77 262 -88 169
-134 217 -235 248 -62 20 -229 24 -313 8z m17 -196 c15 -7 52 -32 81 -55 58
-48 93 -60 167 -62 27 -1 32 -6 52 -58 45 -117 45 -120 53 -473 2 -92 -6 -172
-22 -235 -5 -22 -11 -47 -13 -55 -11 -55 -80 -210 -123 -277 l-33 -51 -66 4
c-46 3 -86 13 -127 32 -81 38 -180 130 -215 201 -31 61 -71 171 -77 212 -14
80 -9 251 10 354 13 74 111 315 156 384 55 87 95 106 157 79z"/>
<path d="M10680 10223 c-19 -2 -64 -9 -100 -15 -36 -6 -105 -12 -155 -13 -49
-2 -103 -7 -118 -14 -69 -27 -81 -161 -63 -671 2 -74 9 -157 14 -184 6 -27 8
-94 5 -150 -8 -161 -9 -304 -1 -401 10 -131 18 -156 52 -174 20 -11 31 -9 79
13 64 29 77 48 83 118 2 27 11 62 19 79 14 26 14 32 -3 66 -11 21 -18 45 -17
55 7 41 18 204 21 313 3 66 5 126 6 134 4 41 141 -38 174 -102 24 -45 197
-271 224 -291 56 -43 167 -167 203 -227 37 -64 37 -64 17 -81 -11 -9 -26 -18
-33 -21 -9 -3 -9 -11 -2 -32 10 -27 17 -30 115 -51 143 -31 229 -27 335 15 44
18 90 44 103 58 22 24 22 26 5 46 -10 11 -41 30 -69 42 -27 13 -64 39 -81 58
-17 19 -44 38 -60 41 -36 8 -89 61 -98 96 -6 26 -136 153 -224 220 -25 20 -64
64 -87 98 -22 34 -70 93 -107 131 -88 91 -89 108 -4 153 114 59 279 255 292
344 8 60 13 185 8 205 -6 22 -104 79 -148 86 -16 2 -62 13 -102 23 -40 10
-110 22 -155 26 -46 3 -85 7 -88 8 -3 1 -21 0 -40 -1z m248 -161 c69 -61 74
-122 21 -223 -39 -73 -137 -181 -193 -213 -37 -22 -82 -33 -198 -50 -46 -7
-51 4 -47 115 2 41 -1 106 -6 144 -11 90 -11 107 1 126 12 22 47 39 79 39 14
0 36 10 48 21 28 27 82 51 127 56 19 2 35 5 36 6 1 1 25 3 52 4 41 2 54 -2 80
-25z"/>
<path d="M5724 10123 c-43 -14 -95 -24 -114 -22 -124 8 -219 -12 -271 -59
l-31 -28 53 -34 c50 -33 54 -38 61 -85 16 -110 26 -313 32 -615 2 -100 8 -177
15 -195 8 -19 10 -49 6 -83 -9 -73 -7 -199 5 -247 7 -31 5 -54 -11 -107 -21
-72 -19 -71 -129 -98 -124 -31 -120 -29 -118 -55 2 -20 12 -28 53 -42 27 -9
57 -18 65 -20 32 -6 140 -6 245 1 61 4 151 8 202 11 107 4 151 21 151 59 0 14
-9 33 -19 42 -14 13 -16 21 -8 41 5 14 8 28 5 30 -4 4 -31 11 -52 12 -6 1 -27
15 -47 32 -50 43 -52 52 -61 449 -3 113 -5 255 -5 315 1 102 7 513 8 526 2 20
46 52 95 69 31 10 70 29 87 41 26 18 28 24 17 35 -7 7 -25 15 -40 18 -15 2
-33 8 -39 12 -35 21 -79 20 -155 -3z"/>
<path d="M6728 10135 c-2 -2 -25 -5 -53 -9 -56 -6 -184 -67 -257 -121 -72 -53
-169 -229 -184 -333 -2 -21 -14 -77 -25 -127 -43 -188 -53 -285 -44 -455 11
-232 18 -285 40 -297 7 -5 32 -39 55 -78 82 -136 147 -183 277 -200 15 -2 41
-9 58 -15 31 -12 117 -16 133 -6 4 2 40 8 78 11 96 9 131 21 180 67 l42 39 36
-22 36 -21 65 36 c35 20 64 40 63 44 -1 4 4 31 10 60 19 82 23 135 26 297 2
122 5 156 20 184 10 19 21 61 23 93 l6 58 -39 1 c-117 1 -162 7 -191 22 -36
19 -127 23 -170 6 -15 -5 -45 -13 -65 -16 -67 -9 -91 -19 -110 -44 -20 -27
-15 -64 10 -74 8 -3 31 -8 51 -11 71 -10 80 -12 100 -23 44 -24 39 -159 -9
-256 -33 -67 -166 -214 -217 -239 -18 -9 -44 -16 -58 -16 -36 0 -92 28 -111
54 -14 20 -49 122 -58 170 -2 11 -9 41 -14 66 -31 136 -35 279 -12 408 10 54
21 115 24 137 12 83 18 112 37 185 26 98 72 213 101 255 29 43 108 87 155 87
28 0 44 -9 77 -41 23 -23 67 -54 97 -70 48 -24 54 -31 55 -60 2 -67 60 -81
169 -40 53 20 56 23 53 51 -4 38 -66 86 -123 95 -24 4 -63 24 -100 51 -33 25
-79 53 -102 64 -38 17 -128 39 -135 33z"/>
<path d="M8295 10104 c-66 -23 -83 -35 -96 -66 -16 -38 7 -63 76 -83 l51 -15
17 -88 c23 -116 23 -139 1 -317 -2 -16 -6 -66 -10 -110 -3 -44 -8 -91 -10
-105 -2 -14 -6 -110 -9 -215 -3 -104 -8 -197 -11 -205 -4 -9 -15 11 -29 48
-12 34 -34 79 -48 100 -26 40 -82 203 -117 342 -24 94 -77 225 -126 310 -68
119 -110 197 -127 240 -10 25 -23 50 -29 57 -14 17 -124 51 -189 58 l-56 6
-45 -46 c-38 -38 -45 -51 -42 -75 8 -50 8 -182 0 -276 -6 -75 -5 -100 9 -140
17 -48 20 -85 31 -381 2 -81 7 -173 10 -203 13 -156 12 -236 -3 -275 -8 -22
-16 -51 -17 -64 -4 -69 253 -115 392 -71 43 13 43 14 37 49 -4 19 -17 48 -30
63 -32 38 -37 84 -59 528 -6 112 4 110 63 -12 38 -78 55 -126 57 -158 2 -52
18 -86 101 -222 31 -51 71 -124 89 -162 55 -115 109 -158 190 -152 71 5 111
28 120 68 15 70 24 249 29 578 2 129 6 262 10 295 8 84 15 137 20 155 9 36 18
133 20 229 2 118 10 133 84 145 46 7 56 18 41 46 -8 15 -7 25 5 44 15 22 14
24 -12 34 -15 6 -55 14 -87 17 -33 3 -71 14 -85 24 -21 14 -35 16 -69 10 -24
-5 -54 -4 -68 1 -31 12 -29 12 -79 -6z"/>
<path d="M4514 9414 c-12 -3 -33 -18 -48 -33 -60 -63 -20 -194 68 -224 54 -19
148 -16 198 6 52 22 128 95 128 122 0 30 -23 48 -114 90 -76 36 -174 52 -232
39z"/>
<path d="M11228 8415 c-2 -1 -75 -6 -163 -9 -88 -4 -178 -9 -200 -11 -109 -10
-181 -17 -195 -20 -73 -13 -214 -19 -565 -21 -518 -3 -1003 -17 -1080 -30 -93
-16 -512 -23 -655 -10 -52 4 -187 9 -300 11 -113 1 -223 6 -245 9 -195 32
-154 30 -785 23 -157 -2 -290 -6 -295 -9 -6 -3 -50 -9 -99 -13 -50 -4 -98 -8
-107 -10 -88 -17 -313 -26 -774 -30 -225 -2 -428 -6 -450 -8 -22 -3 -96 -8
-165 -12 -69 -3 -136 -8 -150 -11 -14 -2 -74 -3 -135 -2 -231 3 -262 3 -345
-5 -97 -8 -119 -12 -167 -28 -22 -7 -159 -12 -376 -15 -188 -2 -393 -6 -456
-8 -96 -3 -118 -1 -145 14 -27 16 -50 18 -196 15 -187 -4 -428 -6 -510 -3 -56
2 -155 -7 -200 -18 -14 -4 -140 -8 -280 -9 -140 -2 -268 -5 -285 -8 -16 -3
-55 -9 -85 -12 -30 -4 -84 -14 -120 -22 -83 -19 -165 -24 -202 -11 -20 7 -48
6 -93 -2 -61 -11 -65 -14 -97 -63 -19 -29 -42 -71 -51 -94 l-16 -42 29 -24
c49 -42 46 -102 -7 -155 -29 -30 -44 -71 -33 -92 6 -11 14 -20 18 -20 4 0 30
-21 57 -46 84 -78 113 -93 221 -112 95 -17 101 -17 149 0 54 19 138 17 238 -6
29 -7 128 -13 221 -14 164 -2 171 -3 208 -27 21 -14 43 -23 47 -20 17 10 149
14 180 5 23 -6 44 -5 74 6 23 8 53 12 67 10 14 -3 61 -8 104 -11 44 -4 94 -12
110 -19 27 -11 35 -10 60 5 23 14 42 16 95 12 62 -5 113 -6 171 -3 14 1 60 -2
102 -6 58 -5 89 -3 125 9 37 12 58 14 92 6 72 -16 327 -3 386 20 45 17 53 18
78 4 22 -11 35 -12 62 -3 20 6 57 8 92 4 32 -3 121 -7 199 -8 77 -2 145 -5
150 -8 9 -6 120 -21 139 -20 6 1 32 7 59 15 36 10 96 13 220 10 94 -2 196 -4
226 -5 30 0 87 7 126 17 63 15 74 15 100 2 52 -26 84 -29 134 -12 26 9 74 18
107 20 32 2 87 7 123 10 40 5 88 3 123 -4 31 -7 59 -12 62 -12 2 0 20 -6 38
-14 19 -8 45 -13 58 -11 82 13 145 17 229 15 258 -5 277 -3 393 26 65 17 69
17 101 0 29 -16 50 -17 187 -11 238 11 271 11 314 4 103 -18 176 -19 222 -3
33 11 79 16 148 15 230 -4 279 -2 360 15 62 12 138 17 314 20 108 1 220 6 248
10 89 12 91 6 18 -88 -39 -51 -77 -89 -95 -97 -42 -17 -138 -139 -219 -275
-42 -71 -125 -323 -156 -472 -15 -71 -29 -137 -32 -148 -3 -16 -4 -156 -2
-355 1 -19 -2 -69 -6 -111 -5 -52 -3 -84 5 -99 7 -12 13 -78 15 -153 5 -181
25 -286 69 -351 18 -28 39 -73 46 -99 15 -54 53 -90 88 -80 25 6 82 -36 167
-123 66 -67 82 -97 67 -126 -6 -13 -18 -52 -27 -88 -41 -169 -93 -303 -147
-385 -47 -71 -53 -113 -19 -149 l23 -25 -63 0 c-116 -2 -153 -8 -171 -31 -31
-39 -7 -60 97 -88 22 -6 77 -22 122 -36 45 -14 99 -27 120 -30 21 -3 52 -8 68
-12 43 -10 172 -7 223 4 42 10 158 10 167 0 9 -9 5 -145 -11 -343 -4 -49 -7
-133 -6 -185 8 -685 6 -880 -6 -892 -11 -11 -24 0 -75 56 -37 41 -101 95 -162
136 -98 66 -152 113 -183 158 -14 21 -13 25 10 50 33 37 55 72 77 131 19 47
19 50 2 65 -10 9 -32 21 -50 26 -29 8 -37 4 -94 -41 -74 -59 -167 -165 -168
-194 -2 -32 2 -69 9 -81 10 -16 155 -132 227 -181 33 -22 75 -56 93 -74 42
-43 142 -174 142 -187 0 -16 -38 -19 -230 -18 l-185 1 -40 81 c-22 45 -46 89
-54 98 -13 15 -15 15 -27 -1 -7 -10 -21 -40 -30 -68 -9 -27 -23 -60 -31 -72
-13 -20 -26 -90 -27 -152 -1 -28 44 -55 128 -77 51 -13 57 -13 95 7 34 17 45
19 78 10 21 -6 64 -11 95 -11 63 0 88 -7 87 -24 0 -6 -31 -58 -67 -116 -44
-69 -81 -113 -107 -131 -22 -15 -71 -57 -109 -93 -49 -47 -72 -62 -78 -53 -4
6 -17 41 -29 77 -27 82 -44 103 -70 87 -24 -15 -45 -60 -60 -125 l-11 -53 44
-38 c24 -22 57 -57 72 -80 41 -59 67 -73 108 -59 31 10 131 76 187 123 108 90
191 168 276 261 142 154 144 156 155 149 13 -8 12 -128 -1 -185 -10 -43 -15
-243 -6 -285 4 -18 -46 -221 -56 -232 -3 -2 -49 -3 -103 -3 -226 4 -323 3
-389 -2 -38 -4 -86 -7 -105 -7 -31 -1 -39 -7 -69 -52 -29 -45 -32 -54 -21 -75
13 -23 50 -41 105 -51 17 -3 63 -11 103 -18 40 -6 112 -13 160 -14 48 -1 161
-4 252 -7 215 -7 222 -7 795 -1 270 2 504 7 520 10 17 3 51 9 78 12 l47 6 0
40 c0 33 -5 42 -30 58 -50 30 -275 64 -440 66 -80 2 -208 6 -285 10 -125 6
-142 9 -167 30 -15 13 -51 31 -80 40 -29 10 -58 24 -65 32 -8 10 -10 46 -7
111 2 54 4 124 3 157 -1 161 -1 252 0 277 l1 27 38 -16 c20 -8 55 -28 77 -44
158 -116 231 -172 305 -234 47 -38 106 -85 132 -104 29 -21 49 -44 53 -60 7
-32 66 -61 136 -69 58 -5 196 38 226 71 33 37 34 43 5 77 -28 31 -30 32 -119
33 -60 1 -95 -2 -106 -11 -12 -11 -27 -3 -93 49 -44 34 -95 76 -114 93 -87 76
-145 123 -184 149 -104 70 -281 236 -281 264 0 7 90 10 403 15 180 3 182 2
182 -60 0 -57 15 -63 230 -98 19 -3 37 -8 39 -10 7 -7 41 28 41 42 0 7 -13 28
-28 46 -35 41 -41 56 -93 248 -44 163 -53 190 -70 190 -15 0 -36 -57 -49 -133
-10 -56 -16 -68 -34 -72 -11 -2 -102 -5 -201 -5 -99 0 -229 -1 -290 -2 -134
-3 -175 2 -175 20 0 7 78 90 173 185 96 95 192 199 214 232 61 91 67 94 97 47
25 -41 68 -66 126 -77 143 -27 178 -31 229 -23 73 12 78 17 45 44 -62 52 -188
138 -246 168 -45 23 -70 45 -92 78 -39 57 -63 69 -143 69 -83 0 -115 -19 -173
-102 -54 -77 -178 -209 -197 -209 -16 0 -32 37 -28 65 10 66 16 119 20 185 9
121 5 115 95 145 44 15 80 29 80 31 0 34 -56 69 -125 80 -25 3 -45 9 -46 13
-2 31 -12 105 -19 146 -12 70 -6 189 16 300 3 17 16 46 29 66 15 23 21 44 18
62 l-5 27 83 -5 c46 -3 131 -7 189 -10 147 -7 240 -15 330 -30 14 -3 43 2 65
10 22 8 59 19 83 25 23 6 42 15 42 19 0 5 -39 89 -87 187 -61 125 -98 189
-125 216 -21 21 -43 38 -47 38 -5 0 -14 -15 -21 -32 l-11 -33 -15 28 c-9 16
-30 70 -49 120 -18 51 -42 112 -53 137 -12 25 -23 63 -26 85 -3 22 -7 50 -10
62 -22 102 -23 101 52 197 97 123 149 236 167 361 3 23 7 50 9 60 13 74 19
164 22 325 2 102 5 199 7 215 39 288 28 436 -45 607 -20 48 -30 90 -33 145 -8
133 -15 185 -40 288 -44 187 -109 338 -160 371 -14 9 -25 20 -25 25 0 13 61
26 108 22 24 -2 65 3 90 10 32 10 79 12 147 9 146 -7 433 0 520 13 37 5 62 5
395 0 385 -6 380 -6 390 0 20 13 151 16 201 6 112 -25 201 -31 496 -36 173 -3
238 -7 260 -18 41 -20 158 -26 283 -13 113 12 190 13 245 4 126 -20 213 -27
435 -33 80 -2 174 -8 210 -13 36 -5 126 -8 200 -6 74 1 233 5 353 8 179 5 225
3 250 -8 18 -8 55 -18 82 -21 28 -3 88 -12 135 -18 79 -12 91 -11 175 10 l90
22 100 -25 c87 -23 106 -25 145 -15 25 6 75 9 112 7 36 -3 95 -1 130 4 117 17
143 21 173 29 53 14 319 4 512 -18 34 -4 100 -6 145 -4 46 1 123 -4 172 -13
50 -8 168 -17 263 -20 113 -3 186 -9 211 -18 20 -8 84 -20 142 -26 58 -7 114
-14 125 -17 11 -2 61 -6 110 -8 50 -2 110 -8 135 -13 68 -12 297 -3 390 17 38
8 58 7 165 -3 70 -7 101 -24 143 -78 17 -23 54 -23 75 0 15 17 26 68 29 133 1
40 -64 165 -90 173 -32 9 -157 19 -212 16 -107 -5 -1166 7 -1195 13 -11 3 -58
8 -105 12 -47 4 -94 9 -105 11 -22 4 -131 11 -325 19 -69 3 -141 7 -160 9 -19
2 -73 7 -120 11 -46 3 -87 8 -91 10 -7 5 -50 6 -144 5 -38 0 -81 2 -95 5 -38
8 -258 15 -505 17 -121 0 -233 5 -250 10 -77 24 -80 24 -740 12 -159 -3 -389
-7 -510 -8 -121 -2 -299 -6 -395 -10 -96 -3 -287 -9 -425 -11 -137 -3 -272 -7
-300 -9 -328 -26 -606 -27 -775 -1 -32 5 -145 13 -290 21 -63 3 -137 8 -165
10 -27 1 -180 6 -339 9 -470 9 -606 16 -691 34 -63 13 -87 14 -115 5 -26 -9
-41 -8 -65 2 -19 8 -57 11 -96 9 -198 -12 -268 -13 -299 -6 -19 4 -48 4 -65
-1 -72 -20 -86 -21 -185 -20 -14 1 -97 1 -185 0 -88 0 -209 1 -270 3 -60 2
-128 3 -150 2 -22 -1 -67 -1 -100 0 -64 1 -224 -11 -265 -19 -14 -3 -122 -7
-240 -9 -150 -2 -235 -8 -280 -19 -50 -12 -95 -14 -195 -10 -71 3 -152 5 -180
3 -90 -5 -279 -2 -310 5 -16 4 -67 7 -112 6 -45 0 -124 6 -175 14 -54 9 -150
14 -228 13 -121 -1 -257 7 -314 19 -26 6 -242 5 -311 -1 -95 -8 -140 -7 -190
6 -27 7 -126 14 -220 15 -93 2 -201 5 -240 6 -38 1 -106 -3 -150 -7 -77 -9
-206 -11 -330 -5 -33 1 -105 2 -160 1 -55 0 -109 1 -120 3 -11 3 -35 5 -52 5
-18 1 -33 5 -33 11 0 8 66 26 82 22 4 -1 45 5 90 14 46 9 128 16 183 16 55 0
120 3 145 9 84 17 105 19 224 24 65 3 123 8 128 11 5 3 125 8 266 10 236 3
370 9 447 19 17 2 72 4 123 6 51 1 118 8 150 15 31 7 68 12 82 9 128 -20 234
-25 275 -13 16 5 47 9 69 9 21 -1 57 5 80 13 22 8 77 17 121 21 44 4 82 7 85
8 3 0 21 -3 40 -6 32 -6 146 -18 195 -20 51 -2 190 15 223 28 20 7 62 16 92
19 30 3 78 10 106 14 27 5 66 7 85 5 90 -9 586 -2 639 10 67 15 159 22 195 15
22 -4 112 -7 200 -7 313 2 507 -4 615 -17 169 -21 877 -20 991 1 9 2 51 -4 95
-12 80 -15 339 -14 365 3 6 4 86 8 178 10 153 2 238 -4 301 -22 14 -4 75 -8
135 -9 61 -2 178 -6 260 -9 250 -11 406 -8 501 8 100 18 163 20 339 12 66 -3
224 -8 350 -11 212 -4 271 -9 395 -33 53 -9 211 -8 325 3 44 4 94 7 110 7 17
-1 136 -3 265 -6 221 -5 346 -12 360 -21 17 -11 89 -17 230 -20 85 -1 162 -5
170 -8 8 -3 50 -8 93 -11 43 -3 82 -8 86 -10 4 -3 88 -8 187 -11 105 -4 210
-13 254 -23 41 -9 113 -17 160 -17 47 -1 101 -4 120 -7 19 -4 70 -9 113 -12
42 -3 81 -8 86 -11 12 -7 192 -18 286 -18 39 0 131 1 205 2 74 0 160 0 190 -1
30 0 73 0 95 0 42 2 83 -1 175 -11 30 -4 100 -9 155 -12 55 -3 111 -7 125 -9
14 -2 77 -7 140 -11 63 -3 142 -10 175 -14 59 -8 261 -7 300 2 127 29 146 27
174 -16 19 -28 31 -37 52 -37 16 0 36 -9 46 -19 10 -11 31 -23 48 -27 16 -4
38 -15 49 -25 17 -16 22 -17 47 -4 37 20 37 20 44 111 4 43 15 102 25 130 10
29 15 63 13 78 -4 21 -39 56 -92 92 -1 2 -3 27 -3 58 -1 52 -3 57 -53 106
l-52 52 -49 -8 c-27 -4 -62 -8 -79 -8 -28 0 -204 14 -250 20 -25 3 -190 12
-350 20 -66 3 -163 11 -215 18 -61 8 -162 12 -280 9 -102 -2 -223 -4 -270 -4
-47 0 -123 -1 -170 -1 -83 -2 -440 1 -930 6 -175 2 -255 -1 -282 -10 -44 -15
-57 -14 -92 10 -35 23 -90 19 -179 -11 -59 -20 -81 -23 -165 -19 -109 6 -596
16 -1072 22 -173 2 -353 6 -400 8 -144 8 -284 17 -310 21 -34 5 -191 17 -265
20 -33 1 -123 6 -200 10 -77 3 -176 8 -220 10 -87 5 -189 14 -220 22 -22 5
-542 13 -547 8z m-1968 -983 c91 -43 191 -138 237 -227 48 -92 49 -101 14
-113 -54 -19 -52 -43 15 -152 40 -66 59 -120 41 -120 -7 0 -28 4 -47 9 -55 15
-167 22 -425 26 -312 6 -556 19 -575 30 -12 7 -7 30 23 101 90 213 172 312
365 444 90 60 130 71 212 53 36 -8 99 -31 140 -51z m-563 -709 c20 -4 18 -8
-25 -40 -75 -56 -101 -84 -107 -114 -4 -15 -15 -31 -25 -34 -10 -3 -29 -27
-41 -53 -25 -52 -138 -232 -146 -232 -7 0 3 235 12 280 8 42 49 144 71 177 14
23 20 24 127 23 62 -1 122 -4 134 -7z m783 -8 c30 -2 74 -4 97 -4 38 -1 42 -4
52 -33 5 -18 14 -71 20 -118 40 -315 31 -509 -29 -604 -10 -17 -29 -67 -40
-111 -32 -118 -35 -118 -55 5 -13 77 -26 130 -59 235 -20 61 -48 150 -63 199
-28 91 -108 225 -216 362 -26 33 -47 63 -47 66 0 4 10 8 23 11 23 4 224 -1
317 -8z m-585 -204 c-3 -31 -8 -94 -10 -141 -3 -47 -7 -96 -9 -110 -3 -14 -8
-68 -11 -120 -4 -52 -8 -111 -10 -130 -2 -19 -6 -71 -10 -114 -4 -43 -8 -86
-10 -95 -11 -61 -22 -201 -31 -391 -7 -168 -11 -250 -13 -265 -1 -13 -97 82
-132 132 -47 68 -106 192 -134 283 -15 47 -40 122 -57 167 l-31 83 18 47 c31
82 67 150 245 456 110 190 172 273 192 261 6 -4 7 -30 3 -63z m285 -40 c55
-69 79 -115 99 -195 7 -27 32 -92 56 -145 43 -97 50 -122 60 -241 5 -56 13
-102 40 -217 3 -12 10 -35 16 -49 14 -39 5 -70 -69 -239 -56 -125 -75 -158
-116 -199 -85 -84 -262 -147 -280 -99 -15 37 -18 201 -6 269 6 38 11 115 11
171 -1 56 3 130 8 165 6 35 13 83 16 108 3 25 7 56 10 70 13 74 30 248 40 420
7 136 13 182 26 234 12 44 6 48 89 -53z m-410 -1506 c15 -8 27 -20 28 -27 3
-42 2 -139 -2 -178 -3 -25 -7 -79 -11 -120 -3 -41 -8 -95 -10 -120 -2 -25 -7
-76 -10 -115 -3 -38 -9 -73 -13 -77 -24 -24 -312 -39 -312 -16 0 5 19 36 41
70 99 145 149 305 164 517 3 44 10 78 17 83 16 10 73 1 108 -17z m589 -17 c5
-13 7 -26 5 -30 -9 -15 18 -102 56 -183 22 -47 40 -88 40 -91 0 -19 86 -126
175 -215 99 -101 105 -109 105 -148 0 -38 -2 -41 -27 -41 -16 0 -55 4 -88 10
-33 5 -103 12 -155 14 -80 5 -185 15 -212 22 -5 1 -14 2 -20 4 -24 3 57 28 96
29 l39 1 -8 48 c-4 26 -9 103 -10 172 -4 128 -26 234 -60 286 -11 17 -13 30
-6 41 7 13 4 25 -11 46 -21 30 -17 42 17 50 42 10 56 6 64 -15z m-273 -54 c9
-32 9 -48 -3 -85 -12 -33 -14 -69 -10 -144 8 -134 9 -137 72 -252 30 -55 55
-104 55 -108 0 -7 -165 -5 -187 3 -9 3 -8 14 3 45 17 49 20 152 5 218 -6 25
-13 74 -16 110 -3 35 -10 88 -16 118 -13 75 -11 128 4 135 6 3 28 4 47 3 31
-2 35 -6 46 -43z"/>
<path d="M16817 7363 c-1 -1 -47 -4 -102 -7 -373 -23 -440 -31 -512 -58 -29
-11 -66 -30 -82 -44 -26 -21 -28 -29 -27 -81 1 -32 9 -72 18 -88 13 -25 16
-59 13 -200 l-2 -170 -38 -92 c-20 -51 -52 -113 -71 -137 -59 -77 -45 -134 38
-162 157 -52 254 17 318 229 16 51 39 122 53 160 14 37 23 67 21 67 -2 0 12
36 31 81 19 45 38 97 41 117 3 21 7 46 9 57 2 11 4 25 4 30 2 22 21 -22 21
-50 0 -16 9 -44 19 -62 14 -22 21 -54 23 -102 3 -74 3 -73 -64 -147 -11 -12
-22 -37 -24 -55 -7 -45 -31 -106 -56 -141 -17 -24 -19 -37 -13 -81 20 -144 11
-209 -37 -271 -17 -21 -34 -53 -38 -70 -5 -28 -10 -31 -41 -31 -40 1 -157 14
-179 20 -8 2 -26 6 -40 9 -14 2 -52 12 -85 22 -33 10 -66 18 -72 17 -7 0 -21
-1 -31 -2 -40 -2 -49 -80 -17 -153 9 -23 22 -38 33 -39 9 0 24 -2 32 -4 13 -2
133 -20 200 -30 14 -2 45 -7 70 -11 25 -4 52 -8 60 -8 31 -2 22 -50 -22 -118
-49 -77 -59 -80 -153 -48 -76 26 -205 27 -255 2 -25 -12 -36 -25 -38 -44 -4
-37 33 -59 163 -99 129 -40 147 -51 139 -87 -4 -15 -12 -33 -18 -41 -6 -8 -29
-50 -51 -95 -46 -92 -49 -94 -145 -58 -57 21 -78 26 -196 44 -58 9 -79 8 -115
-4 -40 -13 -44 -18 -42 -44 6 -77 18 -87 119 -93 12 0 36 -11 55 -24 19 -13
84 -43 144 -67 61 -24 115 -47 122 -52 28 -22 -26 -141 -98 -215 -28 -29 -52
-53 -54 -53 -3 0 -36 21 -76 46 -39 25 -98 57 -132 71 -33 14 -78 40 -100 58
-56 48 -99 56 -167 32 -82 -29 -87 -37 -59 -87 20 -35 34 -46 79 -63 50 -18
139 -79 268 -184 88 -71 115 -102 107 -121 -4 -9 -11 -42 -15 -72 -4 -31 -15
-70 -23 -87 -13 -25 -14 -37 -6 -63 6 -17 10 -32 8 -33 -62 -41 -92 -57 -106
-57 -10 0 -42 16 -70 35 -29 19 -57 35 -62 35 -5 0 -30 21 -55 46 -34 34 -51
44 -66 39 -16 -5 -21 1 -30 37 -9 36 -20 50 -58 75 -51 34 -214 103 -244 103
-25 0 -69 -24 -89 -47 -40 -48 -31 -64 64 -106 61 -28 200 -135 217 -168 10
-17 68 -65 202 -166 20 -15 37 -33 38 -40 0 -7 -15 -29 -32 -49 -18 -20 -49
-66 -68 -102 -39 -74 -103 -129 -137 -118 -18 6 -56 40 -263 240 -41 40 -97
87 -125 106 -27 18 -56 41 -63 52 -18 25 -54 58 -63 58 -4 0 -37 -25 -72 -55
-53 -45 -64 -60 -59 -78 6 -23 223 -247 239 -247 18 0 263 -251 263 -270 0
-14 -100 -210 -109 -211 -41 -9 -54 -3 -94 39 -190 202 -371 368 -459 421 -35
21 -38 21 -71 5 -61 -29 -69 -85 -22 -154 13 -19 53 -69 90 -110 36 -41 79
-97 95 -125 16 -28 43 -61 60 -73 17 -13 38 -38 46 -56 9 -17 32 -43 51 -56
91 -63 83 -96 -44 -189 -131 -95 -123 -99 -270 108 -107 150 -187 235 -310
329 -65 49 -89 62 -113 60 -23 -2 -32 -8 -37 -26 -11 -45 4 -102 39 -145 19
-23 54 -73 78 -112 24 -38 82 -128 127 -198 l83 -128 71 -31 70 -31 -28 -23
c-15 -12 -61 -39 -101 -59 -55 -28 -85 -51 -120 -95 -52 -64 -117 -100 -232
-128 -85 -20 -215 -70 -264 -100 -21 -13 -57 -41 -80 -61 -51 -47 -69 -56
-126 -65 -25 -4 -61 -17 -80 -30 -65 -43 -145 -83 -197 -100 -28 -10 -63 -26
-77 -37 -14 -11 -74 -43 -133 -71 -95 -45 -117 -52 -184 -55 -67 -3 -83 0
-140 27 -35 17 -71 35 -80 41 -12 9 -30 5 -81 -21 l-66 -33 -48 17 c-86 29
-133 18 -173 -39 -27 -40 -44 -47 -120 -50 -31 -1 -69 -9 -86 -18 l-29 -16
-22 58 c-37 97 -80 176 -140 258 -57 76 -58 79 -55 135 4 85 -4 94 -81 88 -62
-5 -64 -4 -120 37 -73 55 -98 64 -140 52 -36 -10 -112 -5 -187 12 -135 31
-305 13 -420 -45 -58 -30 -121 -82 -121 -101 0 -7 -4 -15 -8 -17 -18 -7 -141
-216 -147 -248 -3 -19 -8 -42 -10 -50 -2 -8 -6 -26 -9 -40 -8 -39 -13 -62 -25
-106 -6 -23 -11 -88 -11 -145 -1 -57 -1 -142 -2 -189 0 -100 15 -143 60 -168
17 -9 64 -49 105 -89 121 -115 240 -163 557 -224 141 -27 170 -32 321 -50 95
-11 97 -10 148 15 59 30 124 93 151 146 38 76 98 267 115 370 3 19 8 49 11 67
3 17 7 49 9 70 3 47 16 113 22 113 19 0 45 -27 63 -66 15 -31 34 -51 56 -62
26 -12 34 -22 34 -42 0 -29 23 -66 59 -95 24 -18 38 -20 196 -16 93 1 172 4
175 6 3 2 24 6 46 9 22 4 49 8 59 10 11 2 52 7 90 11 188 18 224 27 447 115
175 69 225 93 327 161 66 43 126 79 133 79 6 0 42 20 80 45 37 25 93 57 125
71 201 89 353 180 478 289 33 29 110 78 170 109 116 60 123 64 353 244 79 62
164 121 190 133 193 86 274 140 373 246 31 34 89 84 129 113 76 55 107 86 151
154 14 23 72 97 130 166 119 144 191 255 184 288 -3 16 10 37 47 77 44 48 49
59 41 78 -9 19 -5 29 28 67 26 29 48 72 65 122 16 50 36 87 56 107 20 19 28
36 24 46 -3 10 2 29 13 44 11 15 25 50 31 77 27 118 32 132 55 144 30 16 47
58 50 118 2 55 42 155 60 148 28 -10 133 204 120 244 -4 12 12 53 41 107 26
48 69 131 97 183 27 52 62 109 77 125 32 34 46 79 60 194 6 44 19 101 30 125
25 59 32 111 32 229 0 80 6 121 33 223 19 69 37 154 40 187 4 34 9 65 11 68 6
10 15 147 19 269 4 165 30 201 140 198 71 -3 93 8 101 47 9 49 2 59 -47 72
-57 15 -108 50 -137 93 -13 19 -31 39 -40 44 -14 8 -199 16 -205 9z m-5526
-4869 c85 -16 139 -39 139 -60 0 -17 -76 -132 -127 -191 -61 -72 -205 -213
-218 -213 -15 0 -148 130 -184 180 -34 48 -34 64 5 142 48 96 144 156 250 157
29 1 89 -6 135 -15z m354 -431 c2 -64 -2 -107 -20 -195 -11 -61 -15 -85 -21
-133 -5 -48 -45 -161 -69 -198 -11 -16 -22 -8 -101 80 -49 54 -99 108 -111
121 -13 12 -23 31 -23 42 0 19 46 83 164 230 34 42 81 106 106 143 l45 67 13
-42 c8 -24 15 -75 17 -115z m-810 -20 c27 -27 125 -166 125 -178 0 -3 -19 -38
-42 -78 -22 -40 -53 -97 -68 -127 -42 -85 -50 -88 -100 -41 l-42 40 6 68 c12
127 17 168 27 208 12 48 50 135 59 135 4 0 20 -12 35 -27z m401 -485 c28 -29
71 -70 97 -91 26 -21 47 -41 47 -45 0 -5 -16 -14 -36 -21 -32 -12 -87 -10
-159 6 -11 2 -46 9 -77 14 -38 7 -58 16 -58 25 0 8 19 38 43 68 23 29 49 62
57 74 8 12 19 22 26 22 6 0 33 -24 60 -52z"/>
<path d="M2300 7329 c-25 -11 -69 -17 -141 -18 -174 -3 -353 -11 -369 -17 -8
-3 -28 -21 -44 -41 -28 -33 -29 -38 -19 -76 9 -32 8 -43 -3 -54 -13 -13 -19
-35 -15 -57 1 -5 -5 -26 -13 -48 -9 -21 -19 -62 -22 -91 -4 -28 -8 -55 -10
-59 -3 -4 7 -37 21 -73 14 -37 28 -94 31 -128 3 -33 11 -79 18 -101 12 -42 13
-186 2 -205 -4 -6 3 -42 14 -80 20 -65 21 -110 5 -153 -4 -9 5 -24 22 -39 17
-15 28 -33 27 -49 0 -14 10 -52 22 -85 12 -33 28 -90 34 -125 15 -75 32 -113
59 -132 11 -8 30 -39 44 -70 14 -30 30 -59 36 -62 17 -11 43 -65 48 -100 7
-52 24 -97 68 -181 23 -44 50 -103 60 -132 10 -29 39 -78 63 -110 24 -32 62
-95 83 -141 27 -58 47 -86 65 -94 14 -7 34 -28 44 -48 10 -19 34 -53 54 -75
23 -24 36 -49 36 -66 0 -14 8 -33 17 -40 9 -8 41 -48 71 -89 31 -41 77 -98
104 -127 26 -28 48 -55 48 -60 0 -4 13 -22 28 -39 46 -54 66 -78 96 -119 16
-22 44 -54 61 -71 49 -49 116 -132 183 -225 69 -97 108 -138 172 -182 25 -17
64 -48 87 -69 24 -21 46 -38 51 -38 4 0 16 -17 27 -37 17 -32 112 -130 211
-220 17 -15 37 -39 43 -51 7 -13 27 -30 45 -37 18 -8 45 -30 60 -49 39 -52 86
-94 126 -112 19 -10 62 -42 96 -73 33 -31 105 -86 161 -124 55 -37 124 -90
154 -117 30 -27 85 -66 124 -86 38 -20 79 -44 90 -53 37 -32 163 -101 185
-101 11 0 33 -11 48 -25 21 -20 37 -25 75 -25 43 0 55 -5 94 -40 40 -35 119
-70 159 -70 7 0 21 -10 31 -23 10 -13 30 -31 44 -40 42 -28 194 -84 217 -80
12 1 45 -12 74 -31 62 -39 81 -46 145 -51 142 -11 248 -40 320 -86 27 -17 48
-20 120 -20 48 0 106 2 128 3 37 3 40 1 43 -24 2 -14 -6 -44 -17 -66 -15 -30
-19 -55 -18 -108 3 -76 -16 -39 197 -376 76 -120 96 -138 156 -138 12 0 60
-14 106 -31 179 -65 240 -73 348 -46 36 9 79 19 97 22 97 16 266 75 317 110
101 69 164 140 214 241 50 100 62 158 67 330 4 122 -13 209 -60 314 -31 68
-45 117 -59 203 -5 29 -19 52 -46 75 -57 47 -129 94 -160 102 -19 5 -51 20
-70 33 -55 37 -200 95 -260 105 -128 19 -257 -1 -370 -58 -70 -36 -223 -146
-247 -177 -11 -17 -43 -74 -71 -129 -27 -54 -58 -113 -68 -130 l-18 -31 -67
13 c-37 7 -90 24 -117 38 -73 37 -237 92 -392 132 -74 19 -146 43 -160 54 -62
49 -107 78 -135 84 -16 4 -64 33 -105 65 -80 61 -130 91 -154 91 -8 0 -34 15
-58 33 -84 64 -142 100 -222 139 -44 22 -84 46 -89 53 -13 23 -188 140 -267
179 -41 21 -91 53 -112 73 l-36 35 99 98 c54 54 136 124 181 156 97 69 106 93
49 131 -42 28 -73 37 -103 29 -45 -11 -149 -89 -251 -186 l-103 -98 -59 40
c-33 21 -71 50 -84 63 -22 21 -23 25 -8 39 12 13 13 21 4 46 -11 29 -9 32 98
141 61 62 159 161 218 220 l108 108 -40 21 c-45 22 -105 26 -138 7 -12 -7 -70
-57 -129 -112 -60 -55 -129 -118 -154 -141 -25 -22 -56 -50 -69 -62 -14 -12
-28 -22 -32 -22 -11 0 -103 97 -122 130 l-18 31 65 29 c36 17 70 30 76 30 25
0 148 67 200 109 75 60 80 69 57 93 -6 7 -17 26 -22 42 -12 36 -45 47 -131 42
-75 -4 -144 -36 -230 -106 -33 -26 -85 -59 -116 -73 l-57 -26 -72 90 -71 89
28 23 c62 48 182 155 230 205 46 47 51 57 50 94 -1 41 -2 42 -49 54 -27 7 -85
15 -130 19 l-82 6 -55 -51 c-30 -29 -76 -71 -101 -96 -26 -24 -52 -44 -58 -44
-6 0 -20 15 -32 33 -12 17 -44 50 -72 72 -107 85 -187 156 -187 168 0 14 4 16
226 125 89 44 166 82 171 85 5 3 7 25 4 49 -6 40 -8 43 -51 56 -29 8 -74 12
-127 9 -87 -5 -132 -22 -296 -114 l-67 -38 -39 44 c-45 52 -100 139 -106 168
-3 17 7 26 55 46 32 14 77 38 101 54 23 15 53 36 67 45 13 9 59 28 101 43 42
15 80 31 85 35 10 10 -10 74 -27 88 -30 25 -248 17 -337 -13 -25 -8 -65 -31
-89 -50 -42 -33 -81 -46 -81 -26 0 5 -17 31 -38 58 -36 46 -88 141 -81 147 35
26 81 49 159 81 202 81 230 99 257 162 8 20 13 36 11 37 -2 1 -25 12 -52 23
-67 28 -113 22 -253 -32 -148 -59 -206 -76 -215 -67 -8 8 -76 194 -102 279
l-13 41 36 16 c57 24 97 34 301 70 160 29 216 49 224 79 13 48 7 63 -31 77
-51 18 -194 20 -263 3 -88 -22 -184 -42 -226 -48 -21 -3 -51 -8 -66 -11 -36
-7 -49 19 -81 166 -25 114 -31 153 -42 283 -24 307 -26 315 -68 430 -17 46
-11 87 12 88 9 0 24 2 33 4 9 2 60 6 113 10 l95 6 14 -33 c13 -31 39 -141 52
-224 3 -20 8 -46 10 -58 3 -11 7 -64 9 -116 5 -133 15 -235 25 -270 5 -17 6
-31 2 -31 -4 -1 11 -5 33 -8 32 -5 89 2 150 18 3 0 14 1 25 1 13 0 26 13 39
38 19 38 19 40 1 69 -10 16 -23 57 -30 89 -6 32 -25 119 -42 192 -16 73 -31
138 -32 145 -2 6 -6 23 -10 37 -11 42 -27 163 -27 205 1 44 -1 49 -41 84 -37
33 -191 45 -248 20z m4841 -4712 c58 -24 63 -37 29 -90 -16 -25 -33 -62 -39
-83 -11 -39 -38 -82 -111 -179 -25 -32 -50 -66 -56 -74 -10 -12 -18 -11 -60
14 -52 31 -161 136 -183 178 -7 14 -11 36 -7 50 15 63 123 155 221 189 57 20
152 18 206 -5z m328 -360 c43 -88 60 -173 57 -286 -2 -98 -28 -201 -51 -201
-6 0 -32 13 -58 30 -26 16 -74 44 -107 61 -69 36 -120 80 -120 104 0 21 24 66
72 138 21 32 52 86 68 120 17 34 40 74 52 89 30 36 49 24 87 -55z m-844 -63
c11 -8 61 -55 111 -104 l92 -89 -18 -28 c-10 -15 -54 -63 -98 -106 -44 -42
-87 -92 -95 -110 -9 -18 -25 -41 -36 -51 -19 -17 -20 -17 -36 14 -13 24 -17
57 -16 129 1 53 3 107 6 121 2 14 6 51 10 82 5 51 25 123 40 149 8 12 16 11
40 -7z m624 -439 c92 -51 161 -99 161 -110 0 -23 -61 -113 -99 -148 -90 -81
-262 -135 -439 -138 -64 -1 -142 22 -142 43 0 4 17 22 37 40 57 51 97 97 148
173 27 39 51 72 54 75 3 3 21 24 39 48 19 24 44 53 55 66 l22 22 53 -19 c30
-10 80 -34 111 -52z"/>
<path d="M13620 7304 c-25 -8 -76 -16 -115 -19 -65 -5 -351 -7 -420 -3 -26 1
-100 -6 -169 -17 -49 -8 -148 -14 -245 -16 -86 -1 -105 1 -113 15 -5 8 -17 20
-28 26 -34 18 -153 21 -260 6 -99 -13 -467 -14 -951 -2 -63 2 -142 0 -175 -5
-32 -4 -111 -10 -174 -13 -63 -3 -140 -10 -170 -15 -115 -21 -199 -28 -454
-36 -94 -3 -186 -8 -205 -11 -46 -8 -104 -31 -99 -41 2 -5 10 -21 18 -36 11
-23 12 -32 1 -49 -10 -16 -9 -30 7 -81 34 -107 71 -279 77 -356 6 -89 11 -111
38 -181 37 -97 72 -142 140 -177 63 -33 79 -38 132 -47 17 -3 84 -16 150 -30
180 -36 312 -52 415 -50 76 1 228 13 251 20 9 2 65 6 125 9 137 6 158 9 300
46 128 33 243 77 317 122 l47 29 68 -40 c118 -70 198 -172 235 -298 20 -68 6
-100 -62 -143 -59 -38 -161 -82 -173 -75 -4 3 -19 -6 -33 -20 -33 -33 -90 -49
-223 -61 -37 -4 -78 -9 -92 -11 -14 -2 -53 -5 -87 -5 -59 0 -66 2 -110 39 -33
28 -62 42 -93 47 -25 4 -79 27 -120 50 -41 24 -91 51 -111 59 -38 16 -174 41
-274 51 -33 3 -71 8 -85 10 -14 3 -74 5 -135 7 -60 1 -135 7 -165 13 -66 14
-115 4 -123 -25 -5 -21 26 -60 48 -60 6 0 27 -14 47 -30 39 -32 107 -57 483
-180 121 -39 225 -77 230 -83 6 -7 28 -25 50 -42 63 -47 179 -174 192 -211 13
-37 13 -37 13 -58 0 -7 18 -26 40 -41 21 -15 39 -30 38 -34 -1 -3 2 -28 7 -55
7 -45 6 -50 -19 -71 -33 -28 -174 -65 -276 -71 -48 -4 -103 0 -155 11 -44 9
-91 18 -105 21 -72 15 -369 175 -417 226 -17 18 -48 65 -68 104 -35 69 -37 72
-123 116 -83 43 -90 45 -162 42 -41 -1 -94 1 -118 6 -40 7 -44 6 -54 -16 -10
-21 -6 -29 33 -71 25 -27 53 -62 63 -79 10 -17 37 -41 60 -54 34 -18 50 -37
79 -94 60 -116 87 -185 122 -311 9 -33 30 -85 47 -115 58 -103 67 -185 29
-263 -17 -35 -31 -49 -64 -62 -81 -33 -181 -13 -238 48 -11 12 -65 112 -120
222 -115 233 -131 260 -158 275 -18 9 -24 6 -40 -21 -63 -104 79 -472 216
-560 82 -54 209 -109 262 -115 78 -9 271 31 306 64 101 94 126 242 68 415 -27
78 -27 85 -13 125 9 28 20 42 32 42 10 0 55 -16 101 -35 92 -38 207 -71 277
-80 25 -3 56 -8 70 -10 81 -15 275 -22 325 -12 17 4 44 9 60 12 17 2 77 20
135 40 80 27 113 44 143 73 50 47 97 119 97 149 0 12 -16 61 -35 107 -19 47
-35 91 -35 98 0 7 -18 33 -40 56 -43 49 -80 120 -80 156 0 21 4 23 42 22 40
-2 99 5 143 18 27 7 106 27 129 32 122 24 347 129 380 175 7 11 31 39 52 62
77 82 84 96 84 154 0 64 -5 74 -81 173 -76 99 -110 135 -194 202 -38 31 -83
70 -99 86 l-29 31 25 33 c14 18 31 51 38 72 7 22 27 60 45 85 18 26 45 69 60
96 16 28 42 65 57 83 43 50 75 104 82 139 9 39 16 42 141 48 55 2 125 7 155
10 30 2 84 7 120 10 81 8 174 23 206 35 13 5 61 12 106 15 67 4 144 13 178 20
126 28 123 28 137 9 13 -18 12 -150 -1 -264 -3 -19 -7 -57 -11 -85 -3 -27 -7
-63 -9 -80 -2 -16 -7 -55 -11 -85 -11 -89 -34 -169 -75 -260 -21 -47 -42 -107
-45 -135 -11 -79 -29 -133 -79 -232 -25 -50 -46 -95 -46 -100 0 -4 -19 -42
-43 -83 -23 -41 -55 -104 -71 -140 -74 -169 -259 -529 -288 -561 -18 -20 -72
-85 -119 -145 -108 -137 -356 -393 -409 -423 -22 -12 -45 -27 -53 -34 -51 -48
-125 -101 -202 -146 -157 -93 -318 -194 -380 -239 -33 -24 -103 -66 -155 -92
-52 -26 -122 -68 -155 -92 -76 -56 -138 -92 -195 -113 -25 -9 -72 -30 -105
-45 -82 -39 -124 -53 -315 -106 -185 -52 -175 -49 -250 -58 -30 -4 -73 -9 -95
-12 -22 -3 -83 -14 -137 -25 -53 -10 -113 -19 -135 -19 -36 -1 -83 -27 -83
-47 0 -15 52 -60 96 -81 48 -24 54 -41 45 -127 -11 -106 40 -243 118 -318 20
-20 92 -64 160 -98 l125 -62 96 6 c159 11 267 61 337 158 19 27 42 49 51 49
10 0 64 -24 122 -52 102 -50 107 -52 195 -52 79 -1 97 2 147 27 64 32 97 70
135 159 15 35 37 80 50 100 13 21 23 41 22 45 -1 5 -1 24 0 44 l1 36 94 -22
c126 -31 198 -21 284 37 51 35 177 200 189 249 9 34 10 34 70 35 33 0 94 9
134 20 70 18 78 23 156 99 79 78 115 135 128 202 7 43 17 46 100 36 70 -8 85
-7 147 14 114 38 182 78 217 125 36 49 38 84 8 191 -37 127 -30 163 33 171 61
9 76 14 154 52 95 46 159 101 181 156 20 51 23 165 5 237 -7 28 -10 57 -7 65
3 7 36 21 74 30 37 10 84 21 104 27 24 6 55 30 100 77 90 95 86 87 108 196 26
122 26 143 2 182 -36 58 -35 71 1 80 18 4 40 8 48 9 39 4 119 38 152 65 92 76
92 193 0 345 -14 22 -34 50 -45 62 -11 13 -19 24 -16 26 2 2 27 19 54 37 114
78 147 126 146 217 -1 105 -26 229 -54 265 -8 10 -34 26 -59 37 -57 24 -62 33
-39 62 56 72 66 108 65 239 0 112 -2 129 -22 162 -32 52 -40 56 -117 59 -39 1
-86 6 -105 10 -19 4 -62 10 -96 13 -33 3 -94 18 -135 32 -89 31 -211 39 -279
18z m-1559 -202 c-14 -9 -40 -22 -60 -27 -39 -11 -51 -36 -30 -61 15 -18 97
-17 169 1 25 6 68 12 96 14 85 4 77 -36 -20 -102 -32 -22 -70 -80 -80 -122
-15 -60 -46 -95 -118 -131 l-70 -35 -156 45 c-214 62 -322 83 -512 100 -124
12 -177 18 -220 26 -74 14 -228 6 -292 -15 -32 -10 -58 -21 -58 -25 0 -14 42
-50 63 -55 86 -19 187 -30 212 -23 53 14 206 -3 395 -44 195 -43 265 -62 349
-98 58 -26 57 -33 -12 -73 -54 -32 -231 -92 -327 -111 -164 -32 -466 -40 -531
-12 -31 13 -99 28 -255 55 -54 10 -161 76 -179 111 -11 21 -15 64 -15 167 0
76 -2 149 -5 163 -20 93 10 197 56 193 82 -8 377 4 569 23 30 3 71 7 90 9 62
6 144 16 175 21 17 3 147 8 290 11 143 3 261 6 262 7 2 2 56 3 120 4 114 2
117 1 94 -16z m1950 -13 c47 -50 50 -120 7 -198 -11 -20 -29 -44 -41 -54 -21
-18 -22 -18 -39 3 -9 11 -15 26 -13 33 2 7 6 45 10 86 3 41 11 83 16 94 6 10
8 25 5 34 -7 17 1 33 16 33 5 0 23 -14 39 -31z m11 -480 c27 -10 60 -19 73
-19 36 0 114 -39 131 -66 27 -40 20 -77 -27 -144 -58 -83 -99 -104 -204 -105
-75 0 -142 13 -174 34 -11 7 -6 35 29 152 23 79 46 151 51 161 11 20 49 16
121 -13z m-125 -522 c27 -20 58 -47 71 -59 28 -28 87 -133 96 -171 6 -25 3
-29 -31 -43 -55 -23 -125 -32 -190 -23 -32 4 -94 10 -138 14 -44 4 -81 8 -83
10 -3 3 25 71 49 120 6 12 11 27 13 35 1 8 12 42 24 75 13 33 24 65 27 71 2 7
25 11 59 9 47 -2 63 -8 103 -38z m-339 -453 c18 -8 59 -46 93 -84 34 -38 71
-72 83 -76 22 -7 27 -13 72 -76 24 -34 25 -38 11 -59 -17 -24 -73 -58 -128
-78 -66 -25 -109 -29 -162 -15 -29 7 -73 15 -98 18 -84 10 -84 7 -29 114 26
54 60 124 75 157 14 33 31 72 38 88 6 15 12 27 13 27 0 0 15 -7 32 -16z m-209
-603 c35 -66 72 -188 67 -216 -3 -11 -5 -25 -5 -31 -1 -6 -27 -24 -58 -40 -67
-33 -139 -37 -188 -11 -16 9 -54 22 -82 28 -76 17 -74 27 32 145 6 6 41 56 80
112 l69 100 28 -16 c15 -9 41 -41 57 -71z m-389 -438 c83 -86 128 -172 137
-265 l6 -68 -44 -19 c-25 -11 -73 -23 -108 -27 l-64 -7 -56 60 c-56 59 -56 59
-148 77 -66 13 -93 22 -93 33 0 16 38 54 126 124 57 45 99 89 134 138 8 12 21
21 29 21 9 0 45 -30 81 -67z m-467 -376 c62 -95 71 -206 20 -259 -43 -46 -104
-88 -127 -88 -21 0 -76 33 -138 83 -21 16 -65 35 -109 46 -40 10 -75 23 -77
29 -2 6 25 24 60 42 35 17 104 63 155 102 88 67 154 101 178 92 6 -3 23 -24
38 -47z m-533 -363 c68 -55 75 -64 84 -115 2 -15 12 -41 21 -59 16 -31 16 -32
-10 -66 -36 -47 -102 -94 -132 -94 -59 0 -151 59 -177 114 -11 24 -34 44 -77
69 l-61 34 58 45 c70 53 194 128 212 128 7 0 44 -25 82 -56z m-539 -266 c44
-47 78 -164 72 -253 -7 -109 -44 -181 -100 -189 -57 -10 -182 104 -209 189
-10 30 -35 76 -56 101 -21 26 -37 52 -35 57 2 6 53 27 113 47 60 21 123 44
139 53 40 22 50 21 76 -5z m-716 -150 c28 0 73 3 100 7 74 11 94 -9 108 -108
8 -59 8 -91 -2 -140 -11 -55 -18 -67 -59 -102 -40 -35 -55 -41 -118 -51 -52
-7 -79 -7 -92 0 -33 19 -68 50 -84 76 -24 36 -70 228 -63 259 8 39 69 72 120
65 22 -3 63 -6 90 -6z"/>
<path d="M4747 7223 c-3 -5 -8 -23 -12 -40 -9 -43 -25 -51 -88 -42 -88 13 -92
12 -109 -24 -15 -31 -29 -39 -150 -86 -163 -64 -207 -89 -249 -142 -31 -39
-33 -48 -33 -115 0 -62 5 -81 35 -140 51 -102 138 -180 224 -200 17 -4 33 -9
37 -11 17 -9 -38 -91 -112 -168 -42 -44 -84 -94 -93 -111 -15 -29 -14 -33 9
-83 35 -72 101 -135 169 -160 31 -12 60 -21 64 -21 5 0 14 -7 21 -15 9 -11 3
-26 -36 -80 -57 -81 -73 -123 -74 -194 0 -76 29 -132 88 -170 53 -34 125 -65
189 -81 l41 -10 -10 -37 c-6 -21 -21 -59 -35 -85 -36 -69 -37 -96 -7 -162 55
-121 185 -202 339 -212 97 -6 106 -10 99 -42 -3 -15 -7 -62 -10 -106 -3 -43
-9 -86 -13 -95 -20 -37 40 -117 114 -151 52 -24 146 -47 213 -53 30 -3 56 -8
59 -11 3 -3 7 -38 9 -78 3 -81 33 -183 69 -235 62 -92 174 -133 377 -139 78
-2 143 -6 145 -8 3 -2 7 -24 10 -48 19 -145 132 -253 308 -294 47 -12 171 -11
221 1 71 16 84 7 89 -67 6 -89 25 -122 96 -168 119 -77 252 -93 413 -50 l89
24 26 -35 c53 -71 125 -134 171 -148 68 -20 217 -39 287 -36 75 4 109 21 163
82 67 76 81 117 87 258 l5 122 -28 27 c-24 22 -29 34 -29 74 l0 47 -55 18
c-43 15 -90 19 -215 21 -94 1 -168 7 -180 13 -17 10 -112 37 -165 48 -8 2 -60
16 -115 31 -55 15 -131 30 -170 34 -38 3 -81 12 -95 19 -14 8 -25 13 -25 11 0
-5 -95 38 -160 72 -138 73 -234 148 -417 329 -100 99 -198 192 -216 206 -17
14 -54 53 -81 87 -26 33 -85 99 -130 146 -47 49 -148 177 -235 300 -134 188
-166 241 -254 420 -124 254 -157 328 -234 527 -125 327 -208 604 -228 768 -5
38 -13 88 -16 110 -15 84 -13 89 31 91 22 1 103 4 180 8 77 3 191 9 254 12
208 11 187 14 210 -31 12 -25 21 -64 22 -98 2 -42 7 -61 19 -70 9 -7 50 -42
91 -80 40 -37 116 -97 169 -132 149 -101 138 -87 105 -137 -19 -29 -28 -54
-26 -76 1 -24 -12 -57 -48 -120 -69 -120 -91 -226 -68 -322 9 -36 19 -85 22
-110 7 -60 38 -108 80 -125 37 -16 191 -62 234 -70 135 -26 158 -27 212 -12
30 9 79 19 109 22 30 4 58 9 61 11 14 8 99 14 99 7 0 -12 -31 -56 -63 -89 -37
-38 -146 -199 -165 -244 -25 -60 -25 -127 2 -250 32 -150 35 -158 98 -225 92
-99 112 -111 223 -130 55 -10 114 -18 130 -18 49 0 119 40 202 116 43 40 107
94 143 122 36 27 99 84 140 127 65 67 100 93 100 73 0 -17 37 -185 77 -353 67
-279 86 -299 318 -327 22 -3 47 -8 56 -10 18 -6 103 36 137 68 35 33 57 74 87
162 15 44 31 85 35 90 10 12 37 105 46 155 3 19 8 49 11 65 8 42 9 143 2 150
-4 3 -28 -3 -55 -12 -41 -16 -54 -27 -82 -73 -18 -30 -42 -86 -54 -125 -12
-38 -31 -80 -42 -93 -12 -13 -42 -64 -67 -115 l-45 -92 -56 -3 c-50 -3 -58 -1
-72 20 -12 19 -61 225 -92 383 -4 22 -9 47 -10 55 -12 57 -18 139 -17 220 1
116 26 208 83 300 31 51 38 71 35 98 -6 44 -28 69 -74 82 -51 14 -54 13 -89
-18 -58 -52 -91 -103 -118 -185 -38 -116 -63 -161 -140 -257 -141 -175 -212
-247 -364 -367 l-105 -84 -57 2 c-72 3 -106 19 -140 67 -53 75 -75 222 -48
322 25 95 424 535 557 617 77 47 116 64 223 100 88 29 127 63 107 93 -6 11
-17 20 -22 20 -6 0 -28 9 -49 19 -53 27 -117 21 -195 -18 -34 -18 -102 -46
-149 -63 -114 -40 -174 -71 -222 -114 -31 -28 -44 -33 -64 -28 -19 5 -37 -1
-66 -20 -69 -46 -356 -106 -490 -102 -99 2 -150 23 -198 82 l-30 36 19 71 c34
122 117 260 195 326 16 13 38 32 50 43 21 18 22 18 70 -3 81 -35 288 -107 325
-112 18 -3 65 -9 104 -12 38 -4 78 -9 90 -11 25 -6 204 -6 213 0 4 2 27 7 52
10 45 6 148 34 205 55 39 15 57 23 135 59 36 17 88 33 115 37 57 7 87 30 102
78 68 204 150 432 173 477 29 58 82 113 120 125 14 4 19 12 16 22 -3 8 -6 18
-6 23 0 5 -28 27 -62 51 -69 46 -116 55 -208 36 -49 -9 -199 -14 -560 -19
-206 -3 -352 2 -510 17 -25 2 -103 7 -175 10 -71 3 -170 8 -220 10 -49 2 -146
7 -215 10 -69 3 -136 8 -150 10 -14 3 -36 8 -50 11 -14 2 -72 7 -130 9 -86 3
-109 1 -130 -13 -19 -13 -49 -17 -120 -18 -52 0 -129 -4 -170 -8 -41 -4 -95
-9 -120 -11 -25 -2 -74 -8 -110 -11 -36 -4 -108 -8 -160 -8 l-95 -1 -33 42
c-34 44 -67 69 -75 56z m1313 -217 c97 -6 210 -10 515 -21 66 -2 174 -7 240
-12 225 -14 510 -9 803 13 34 3 67 2 72 -1 9 -6 -13 -78 -50 -160 -12 -27 -29
-66 -37 -85 -84 -198 -159 -293 -275 -349 -165 -78 -338 -93 -523 -46 -91 23
-275 96 -275 109 0 15 236 137 325 169 118 41 208 51 272 30 43 -15 44 -15 93
17 28 18 50 34 50 35 0 2 -12 17 -27 33 -27 29 -123 71 -159 71 -11 -1 -68 2
-129 5 -173 8 -246 -11 -564 -148 l-154 -66 -66 41 c-97 61 -190 132 -238 181
-38 39 -113 151 -113 169 0 10 70 25 105 23 17 -2 77 -5 135 -8z m-1391 -153
c-1 -21 6 -67 15 -102 16 -60 21 -115 18 -208 -2 -33 -5 -40 -19 -38 -195 39
-251 66 -284 137 -28 60 -30 110 -3 139 48 54 163 108 232 109 l43 0 -2 -37z
m110 -573 c10 -35 16 -67 25 -145 3 -22 8 -54 11 -71 7 -31 6 -32 -51 -55 -81
-31 -190 -32 -256 -2 -59 27 -61 44 -10 109 20 27 45 63 54 79 9 17 32 43 51
58 38 32 149 80 158 69 4 -4 12 -23 18 -42z m116 -470 c8 -16 15 -46 15 -68 0
-21 9 -72 20 -113 11 -41 20 -79 20 -85 0 -11 -86 -53 -138 -69 -41 -12 -119
-7 -152 10 -75 39 -67 174 14 240 30 25 150 92 203 114 1 1 9 -12 18 -29z
m194 -557 c14 -23 49 -65 76 -95 96 -102 91 -92 55 -125 -83 -74 -150 -88
-262 -53 -91 28 -128 74 -128 160 0 53 39 96 131 143 81 42 84 41 128 -30z
m364 -450 c17 -25 41 -54 52 -62 11 -9 41 -37 67 -62 64 -62 58 -81 -43 -131
-63 -32 -81 -37 -122 -33 -65 7 -116 29 -125 56 -5 12 -8 58 -8 103 1 62 6 89
19 110 17 25 84 64 115 65 7 1 27 -20 45 -46z m380 -407 c16 -24 98 -104 144
-141 38 -30 93 -83 93 -89 0 -12 -58 -58 -98 -76 -112 -53 -193 -47 -263 20
-38 36 -41 43 -36 77 8 56 113 233 137 233 4 0 15 -11 23 -24z m623 -500 c49
-25 100 -54 114 -64 21 -18 22 -22 10 -37 -7 -9 -32 -27 -54 -40 -92 -53 -162
-49 -190 9 -18 38 -32 137 -22 161 9 25 48 17 142 -29z m623 -187 l82 -22 -5
-69 c-6 -86 -36 -141 -92 -174 -63 -37 -97 -37 -132 0 -46 48 -60 131 -33 206
5 14 4 35 -1 49 -6 16 -5 27 3 31 18 12 90 3 178 -21z m618 -115 c41 -6 48
-30 38 -127 -5 -40 -9 -93 -10 -118 -2 -47 -34 -108 -58 -110 -25 -2 -63 3
-93 12 -54 17 -97 139 -103 292 l-2 68 98 -6 c54 -3 113 -8 130 -11z"/>
<path d="M2987 7166 c-16 -24 -16 -25 36 -69 87 -73 122 -90 191 -92 86 -4
108 -16 104 -62 -3 -32 -9 -40 -48 -60 -25 -13 -49 -28 -54 -33 -18 -18 65
-40 154 -40 96 0 93 2 115 -77 29 -105 27 -228 -4 -208 -5 3 -44 7 -87 10 -54
4 -91 13 -119 28 l-40 22 -36 145 c-49 203 -107 322 -164 336 -18 4 -35 -2
-65 -26 l-41 -32 2 -165 c1 -168 12 -239 46 -291 14 -22 13 -26 -8 -48 -21
-22 -21 -24 -5 -49 20 -31 54 -146 66 -225 8 -53 69 -220 90 -245 5 -6 12 -45
15 -84 6 -86 47 -194 111 -292 24 -37 44 -76 44 -87 0 -11 16 -51 34 -89 19
-37 59 -120 89 -183 76 -163 251 -410 358 -507 20 -18 76 -63 125 -99 49 -36
91 -69 94 -73 30 -38 376 -292 600 -440 80 -53 170 -116 200 -140 107 -85 321
-171 428 -172 49 -1 56 2 82 32 19 24 25 39 19 49 -15 27 -95 106 -165 162
-80 64 -97 83 -189 198 -38 47 -77 91 -87 98 -24 18 -364 531 -426 645 -13 23
-53 98 -89 167 -62 117 -91 169 -121 215 -6 11 -16 29 -22 40 -12 25 -33 59
-142 234 -203 325 -300 567 -342 851 -9 58 -18 116 -21 130 -16 71 -17 147 -2
181 13 32 13 38 -3 60 -9 13 -21 47 -28 74 -6 28 -25 76 -43 107 l-33 57 -73
16 c-53 12 -85 14 -116 8 -51 -11 -121 -9 -185 6 -26 6 -63 13 -82 16 -19 3
-42 8 -50 10 -8 2 -34 7 -56 10 -36 5 -43 2 -57 -19z m465 -763 l87 -26 21
-90 c12 -50 30 -108 41 -129 18 -35 18 -39 3 -45 -9 -3 -42 -1 -73 4 -34 7
-65 7 -80 1 -34 -12 -86 25 -115 82 -31 59 -63 191 -57 234 1 12 70 0 173 -31z
m60 -408 c116 -19 164 -39 177 -74 5 -14 25 -61 44 -103 30 -67 33 -78 18 -83
-9 -2 -26 -3 -38 -1 -80 16 -117 17 -163 5 -43 -11 -53 -11 -60 1 -7 11 -61
169 -85 248 -8 26 -10 26 107 7z m173 -400 c55 -4 106 -9 115 -10 8 -2 25 -4
36 -4 21 -1 92 -100 143 -198 36 -71 32 -77 -46 -68 -38 4 -86 7 -108 5 -46
-3 -89 -4 -127 -1 -29 1 -49 29 -88 126 -13 33 -34 80 -46 105 -20 41 -20 46
-5 51 9 4 18 5 21 4 3 -2 50 -6 105 -10z m235 -420 c155 -4 158 -5 207 -83 63
-102 73 -89 -105 -142 l-74 -22 -30 28 c-41 39 -112 141 -132 188 -20 49 -20
49 6 40 11 -3 69 -8 128 -9z m428 -402 c16 -21 42 -62 57 -92 31 -63 24 -79
-42 -88 -49 -6 -100 18 -164 78 -25 24 -60 52 -77 61 -19 10 -32 25 -32 36 0
17 11 21 78 29 141 18 147 18 180 -24z m266 -377 c40 -50 92 -111 115 -135 23
-24 39 -46 37 -48 -14 -14 -326 235 -326 261 0 4 3 5 8 3 4 -3 15 -2 24 2 54
19 67 12 142 -83z"/>
<path d="M15400 7109 c-63 -5 -144 -8 -180 -8 -319 4 -334 1 -336 -64 0 -27
-8 -46 -29 -67 l-29 -30 -2 -177 c-1 -98 -4 -194 -7 -213 -3 -19 -11 -79 -17
-134 -12 -101 -17 -123 -68 -266 -16 -47 -33 -112 -36 -145 -12 -111 -82 -315
-142 -415 -27 -45 -62 -123 -130 -285 -60 -147 -92 -207 -183 -352 -19 -29
-37 -72 -42 -96 -8 -47 -93 -194 -164 -287 -23 -30 -69 -100 -101 -154 -38
-64 -87 -128 -136 -178 -43 -43 -83 -87 -90 -96 -21 -29 -111 -99 -136 -107
-13 -4 -39 -31 -59 -61 l-37 -55 30 -29 29 -29 81 14 c131 23 202 59 424 216
113 80 244 171 292 203 106 71 141 103 201 182 53 71 127 139 175 162 17 9 32
19 32 22 0 4 22 32 49 63 27 31 52 65 56 76 3 10 23 26 44 35 33 13 42 22 55
64 24 72 132 251 175 292 29 28 40 48 50 95 14 65 64 164 145 290 66 103 87
148 121 265 14 52 43 138 62 190 20 52 49 145 65 205 16 61 41 148 54 194 13
46 27 98 30 115 3 17 9 49 14 71 5 22 11 58 14 80 4 23 9 52 11 65 10 44 7
129 -5 166 -14 42 -5 58 46 74 30 10 33 15 28 38 -18 77 -82 90 -354 71z
m-184 -175 c76 -14 148 -27 159 -28 62 -8 83 -18 87 -40 8 -43 -2 -214 -18
-303 -5 -27 -11 -32 -38 -35 -17 -2 -53 2 -81 9 -27 7 -62 13 -77 13 -15 0
-45 9 -68 21 -38 20 -42 20 -87 5 -25 -9 -48 -15 -49 -13 -2 2 -5 61 -8 132
-3 72 -8 160 -12 198 l-7 67 30 0 c16 0 92 -12 169 -26z m-56 -505 c232 -53
225 -50 228 -89 2 -20 -5 -51 -17 -76 -12 -23 -24 -61 -27 -85 -3 -24 -9 -48
-13 -52 -12 -12 -106 -24 -161 -21 -31 2 -62 11 -80 24 -16 11 -46 22 -67 23
-26 1 -38 7 -38 17 0 19 13 128 20 160 2 14 7 39 11 55 15 77 8 75 144 44z
m-112 -438 c35 -18 88 -32 137 -36 25 -2 25 -36 1 -117 -13 -44 -22 -58 -44
-67 -37 -16 -220 -23 -243 -10 -25 13 -24 32 7 131 15 46 28 90 29 98 2 8 4
16 4 18 3 10 79 -2 109 -17z m-117 -351 c67 -16 80 -18 117 -19 17 -1 32 -6
32 -12 0 -6 -23 -43 -52 -83 -28 -39 -60 -91 -69 -116 -16 -42 -19 -45 -52
-43 -33 2 -127 33 -157 52 -11 8 -12 14 -2 33 6 13 25 59 43 103 44 115 35
109 140 85z m-217 -318 c8 -16 37 -40 70 -57 46 -24 55 -33 50 -49 -6 -18 -42
-55 -55 -56 -3 0 -11 -21 -18 -47 -18 -71 -37 -90 -96 -96 -50 -5 -115 13
-115 31 0 35 130 302 147 302 1 0 9 -13 17 -28z m-115 -427 c4 -5 -16 -34 -74
-102 -113 -132 -137 -149 -186 -122 -19 10 -19 12 12 67 18 31 56 90 86 129
l53 73 53 -21 c28 -11 54 -22 56 -24z m-325 -354 c9 -13 -113 -121 -137 -121
-4 0 15 34 43 75 45 64 55 73 71 65 10 -6 20 -14 23 -19z"/>
<path d="M5616 3762 c-30 -4 -99 -45 -144 -86 -44 -39 -52 -67 -41 -137 18
-111 26 -101 -81 -103 -107 -2 -137 -13 -194 -73 -93 -99 -97 -105 -91 -154 7
-68 18 -90 69 -137 49 -45 100 -72 145 -76 21 -3 28 -11 36 -44 13 -52 19 -57
80 -75 l50 -14 18 -69 c10 -38 23 -87 29 -108 16 -64 103 -133 188 -150 14 -2
58 -12 98 -20 92 -20 135 -20 172 -1 43 22 134 121 172 186 32 54 34 56 78 57
114 4 201 39 252 103 33 41 93 236 84 272 -3 13 -20 30 -38 39 -18 8 -53 32
-78 53 -82 69 -138 88 -300 100 -80 6 -97 22 -94 89 4 94 -60 230 -141 298
-40 33 -188 61 -269 50z m151 -124 c12 -15 40 -100 46 -138 3 -14 -2 -47 -10
-73 -12 -43 -16 -47 -36 -41 -41 13 -76 44 -79 72 -3 27 15 142 27 175 8 20
38 23 52 5z m-266 -360 c7 -18 40 -50 79 -79 36 -26 71 -59 78 -73 10 -23 8
-28 -24 -52 -30 -23 -41 -26 -85 -21 -72 9 -162 76 -200 149 -31 61 -23 79 46
102 54 19 91 10 106 -26z m767 -148 c47 -44 47 -127 0 -177 -43 -46 -127 -69
-129 -35 0 9 -2 31 -4 47 -2 17 -6 60 -9 97 l-5 66 37 10 c58 16 87 14 110 -8z
m-408 -289 c16 -50 3 -104 -36 -151 -21 -25 -33 -30 -68 -30 -76 0 -103 39
-84 123 13 58 38 85 100 106 61 20 66 17 88 -48z"/>
<path d="M12923 3609 c-32 -15 -78 -47 -101 -69 -33 -33 -41 -47 -40 -75 1
-33 -19 -74 -52 -106 -29 -29 -15 -130 32 -222 l19 -38 -53 31 c-86 51 -136
71 -205 83 -55 9 -73 8 -117 -7 -28 -10 -61 -26 -74 -36 -30 -25 -66 -139 -66
-210 -1 -48 5 -64 42 -122 l43 -66 97 -37 c53 -21 111 -43 127 -50 17 -7 46
-18 65 -25 19 -7 38 -16 41 -19 4 -3 9 -45 13 -92 8 -125 44 -197 116 -235 51
-28 209 -27 265 1 44 22 80 77 90 135 3 19 7 46 10 60 2 14 7 43 10 65 4 22 7
45 9 50 6 30 17 31 88 7 40 -13 93 -25 118 -26 63 -2 135 37 183 100 48 62 63
95 71 162 5 45 2 60 -23 110 -26 50 -39 63 -108 104 -49 30 -109 55 -160 69
-81 22 -83 23 -85 53 -3 59 -1 101 6 162 11 92 -26 160 -127 237 -41 31 -52
35 -110 35 -50 0 -77 -6 -124 -29z m183 -136 c14 -30 18 -63 18 -158 0 -149
-12 -179 -81 -222 -47 -29 -51 -30 -71 -14 -56 42 -48 305 12 383 16 21 65 48
87 48 9 0 25 -17 35 -37z m-509 -398 c57 -29 135 -103 144 -137 13 -54 -33
-105 -98 -110 -38 -3 -253 99 -253 120 0 34 108 152 139 152 10 0 40 -11 68
-25z m858 -126 c65 -12 75 -20 75 -62 0 -56 -87 -177 -127 -177 -28 0 -221
125 -215 138 34 68 48 83 91 96 59 17 102 18 176 5z m-457 -171 c11 -14 16
-49 28 -168 3 -41 15 -91 24 -110 12 -24 15 -42 9 -57 -9 -24 -69 -59 -109
-64 -37 -4 -90 27 -91 54 -4 67 -1 93 30 209 26 99 38 128 55 136 29 14 42 14
54 0z"/>
</g>
</svg>
